<svg xmlns="http://www.w3.org/2000/svg" viewBox="0 0 168 158.17"><defs><style>.cls-1{fill:#59251b;}.cls-1,.cls-2,.cls-3,.cls-4,.cls-5{fill-rule:evenodd;}.cls-2{fill:#fffcf5;}.cls-3{fill:#f1e3d6;}.cls-4{fill:#fff;}.cls-5{fill:#ff8884;}</style></defs><g id="Layer_2" data-name="Layer 2"><g id="File_1" data-name="File 1"><g id="Facing_Right" data-name="Facing Right"><path class="cls-1" d="M102,8.06a18.07,18.07,0,0,1,4.82-.32A18.78,18.78,0,0,1,124,26.86c14.65,8.07,27.83,19.35,35.9,34.18a67,67,0,0,1,8,34.75,56.9,56.9,0,0,1-12.23,33.88c-17,21.46-47.55,29.3-73.85,28.44-26.57-.87-57-10.9-72.48-34C1.35,112.14-1.29,98.21.56,84,4.47,53.83,22.52,32.75,50,21.8A17.82,17.82,0,0,1,68.94,5.09a18,18,0,0,1,4.67,1A17.63,17.63,0,0,1,88.15,0,18.42,18.42,0,0,1,102,8.06Z"/><path class="cls-2" d="M119.15,26.31a13.88,13.88,0,0,0-12.67-13.73A12.72,12.72,0,0,0,99.64,14c-2.32,1.1-6,5.33-7.21,8.42A19.81,19.81,0,0,1,98,10.86a13.51,13.51,0,0,0-10.22-6,12.78,12.78,0,0,0-12.53,7.42c-1.17,2.34-1.49,8-.64,11.31a20.94,20.94,0,0,1-2.48-12.93,13.13,13.13,0,0,0-3.56-.76A13,13,0,0,0,54.81,22.57a14.35,14.35,0,0,0,.12,2.55h0c.52,2.62,3.7,7.37,6.33,9.47a20.34,20.34,0,0,1-9.4-8.31C26.22,36.47,9.09,56,5.38,84.58c-11.09,85.48,154.65,93.6,157.72,11,1.12-30.14-17.94-52.43-44.3-66-2.12-1.57-7.57-2.84-10.85-2.51A18.47,18.47,0,0,1,119.15,26.31Z"/><path class="cls-3" d="M61.26,34.59a20.34,20.34,0,0,1-9.4-8.31c-.93.37-1.84.76-2.75,1.15,2.78,3.77,7,6.15,12.15,7.16Z"/><path class="cls-3" d="M74.42,22.55c.06.38.14.74.22,1.07l-.22-1.07Zm.22,1.07c-3.28-4.24-5-8.87-4.66-13.52a13.21,13.21,0,0,1,2.18.59A20.94,20.94,0,0,0,74.64,23.62Z"/><path class="cls-3" d="M92.57,22.12c0,.1-.1.21-.14.31l.14-.31Zm-.14.31c-.31-5.39.93-10.12,3.87-13.65A13.84,13.84,0,0,1,98,10.86,19.81,19.81,0,0,0,92.43,22.43Z"/><path class="cls-3" d="M119.15,26.31a13.81,13.81,0,0,0-.37-3A18.93,18.93,0,0,0,108,27.08,18.47,18.47,0,0,1,119.15,26.31Z"/><path class="cls-3" d="M16.13,125.11c35.76,44.72,144.49,37.24,147-29.5.76-20.56-7.87-37.48-21.81-50.46,34.8,67.73-10.66,115.22-82.87,100C44.55,142.2,29.75,134.5,16.13,125.11Z"/><path class="cls-1" d="M98.69,62.11c7.79-4.6,7-17.24,3.11-22.23C102.92,49.65,101.73,56.89,98.69,62.11Z"/><path class="cls-1" d="M107.13,43c2.51,9,6.26,11.35,10.67,10.11C109.77,47.3,109.69,45.81,107.13,43Z"/><path class="cls-1" d="M99.68,43.48c.93,5.59-3.41,12.33-7.18,12C95.54,53.17,97.73,48.27,99.68,43.48Z"/><path class="cls-1" d="M126.67,89.53a10,10,0,0,0-5.73,12.55,9.14,9.14,0,0,0,12,5.66,10,10,0,0,0,5.72-12.55A9.14,9.14,0,0,0,126.67,89.53Z"/><path class="cls-4" d="M125.58,91.21A4.32,4.32,0,0,0,123,96.36a3.54,3.54,0,0,0,4.81,2.23,4.31,4.31,0,0,0,2.58-5.14A3.56,3.56,0,0,0,125.58,91.21Z"/><path class="cls-1" d="M111,111.5a9.33,9.33,0,0,0-1.75.13c-.44.13-.69.39-.66.65s.32.48.79.69a3,3,0,0,0,3.5-.28c.42-.28.68-.55.66-.81s-.33-.48-.79-.54A12.83,12.83,0,0,0,111,111.5Z"/><path class="cls-1" d="M72.86,89a10.5,10.5,0,0,1,9.07,12.17,11.32,11.32,0,0,1-12.51,9.43A10.51,10.51,0,0,1,60.35,98.4,11.31,11.31,0,0,1,72.86,89Z"/><path class="cls-4" d="M75.65,91.34a4.67,4.67,0,0,1,3.81,5.19,4.28,4.28,0,0,1-4.87,3.86,4.68,4.68,0,0,1-3.81-5.19A4.28,4.28,0,0,1,75.65,91.34Z"/><path class="cls-1" d="M121,117.87c-2.07,2.48-6.73,2.79-10.14,0-4.63,5-13.15,5.2-20.7,3.26a29.22,29.22,0,0,0,9.65,2.09l.11.33c1,3,3.09,6.38,6.53,6.83,5.6.72,8.69-4.9,10.82-9.13l.34-.67A5.24,5.24,0,0,0,121,117.87Z"/><path class="cls-5" d="M116.39,120.77c-2.34,4.65-5.09,9.18-9.78,8.58-2.65-.34-4.59-2.93-5.7-6.15a16.17,16.17,0,0,0,10.14-3.64A10.42,10.42,0,0,0,116.39,120.77Z"/></g></g></g></svg>