<svg id="Layer_1" data-name="Layer 1" xmlns="http://www.w3.org/2000/svg" xmlns:xlink="http://www.w3.org/1999/xlink" viewBox="0 0 292 292"><defs><style>.cls-1{fill-opacity:0.4;stroke-miterlimit:10;stroke-width:3px;stroke:url(#linear-gradient);}.cls-2{fill:url(#linear-gradient-2);}.cls-3{fill:url(#linear-gradient-3);}.cls-4{fill:url(#linear-gradient-4);}.cls-5{fill:url(#linear-gradient-5);}.cls-6{fill:url(#linear-gradient-6);}.cls-7{fill:url(#linear-gradient-7);}.cls-8{fill:url(#linear-gradient-8);}.cls-9{fill:url(#linear-gradient-9);}.cls-10{fill:url(#linear-gradient-10);}.cls-11{fill:url(#linear-gradient-11);}.cls-12{fill:url(#linear-gradient-12);}.cls-13{fill:url(#linear-gradient-13);}.cls-14{fill:url(#linear-gradient-14);}.cls-15{fill:url(#linear-gradient-15);}.cls-16{fill:url(#linear-gradient-16);}.cls-17{fill:url(#linear-gradient-17);}.cls-18{fill:url(#linear-gradient-18);}.cls-19{fill:url(#linear-gradient-19);}.cls-20{fill:url(#linear-gradient-20);}.cls-21{fill:url(#linear-gradient-21);}.cls-22{fill:url(#linear-gradient-22);}.cls-23{fill:url(#linear-gradient-23);}.cls-24{fill:url(#linear-gradient-24);}.cls-25{fill:url(#linear-gradient-25);}</style><linearGradient id="linear-gradient" x1="24.5" y1="146" x2="267.5" y2="146" gradientUnits="userSpaceOnUse"><stop offset="0" stop-color="#6b9aef"/><stop offset="0.31" stop-color="#65c48c"/><stop offset="0.55" stop-color="#49b8ae"/><stop offset="0.84" stop-color="#2babd2"/><stop offset="1" stop-color="#1fa6e0"/></linearGradient><linearGradient id="linear-gradient-2" x1="96.85" y1="281.26" x2="254.01" y2="65.62" xlink:href="#linear-gradient"/><linearGradient id="linear-gradient-3" x1="94.07" y1="279.24" x2="251.24" y2="63.6" xlink:href="#linear-gradient"/><linearGradient id="linear-gradient-4" x1="8.57" y1="216.93" x2="165.74" y2="1.28" xlink:href="#linear-gradient"/><linearGradient id="linear-gradient-5" x1="28.48" y1="231.44" x2="185.64" y2="15.79" xlink:href="#linear-gradient"/><linearGradient id="linear-gradient-6" x1="93.93" y1="279.13" x2="251.09" y2="63.49" xlink:href="#linear-gradient"/><linearGradient id="linear-gradient-7" x1="119.74" y1="297.95" x2="276.9" y2="82.3" xlink:href="#linear-gradient"/><linearGradient id="linear-gradient-8" x1="45.91" y1="244.14" x2="203.08" y2="28.5" xlink:href="#linear-gradient"/><linearGradient id="linear-gradient-9" x1="77.69" y1="267.3" x2="234.86" y2="51.66" xlink:href="#linear-gradient"/><linearGradient id="linear-gradient-10" x1="3.62" y1="213.32" x2="160.78" y2="-2.33" xlink:href="#linear-gradient"/><linearGradient id="linear-gradient-11" x1="-25.48" y1="192.11" x2="131.69" y2="-23.53" xlink:href="#linear-gradient"/><linearGradient id="linear-gradient-12" x1="-40.18" y1="181.4" x2="116.99" y2="-34.25" xlink:href="#linear-gradient"/><linearGradient id="linear-gradient-13" x1="-38.24" y1="182.81" x2="118.92" y2="-32.84" xlink:href="#linear-gradient"/><linearGradient id="linear-gradient-14" x1="-19.97" y1="196.13" x2="137.2" y2="-19.52" xlink:href="#linear-gradient"/><linearGradient id="linear-gradient-15" x1="11.86" y1="219.32" x2="169.03" y2="3.68" xlink:href="#linear-gradient"/><linearGradient id="linear-gradient-16" x1="52.4" y1="248.87" x2="209.57" y2="33.23" xlink:href="#linear-gradient"/><linearGradient id="linear-gradient-17" x1="95.48" y1="280.27" x2="252.65" y2="64.62" xlink:href="#linear-gradient"/><linearGradient id="linear-gradient-18" x1="134.55" y1="308.74" x2="291.71" y2="93.09" xlink:href="#linear-gradient"/><linearGradient id="linear-gradient-19" x1="163.64" y1="329.94" x2="320.81" y2="114.3" xlink:href="#linear-gradient"/><linearGradient id="linear-gradient-20" x1="178.34" y1="340.66" x2="335.51" y2="125.01" xlink:href="#linear-gradient"/><linearGradient id="linear-gradient-21" x1="176.41" y1="339.25" x2="333.57" y2="123.6" xlink:href="#linear-gradient"/><linearGradient id="linear-gradient-22" x1="158.13" y1="325.93" x2="315.3" y2="110.28" xlink:href="#linear-gradient"/><linearGradient id="linear-gradient-23" x1="126.3" y1="302.73" x2="283.47" y2="87.09" xlink:href="#linear-gradient"/><linearGradient id="linear-gradient-24" x1="85.76" y1="273.18" x2="242.93" y2="57.54" xlink:href="#linear-gradient"/><linearGradient id="linear-gradient-25" x1="42.68" y1="241.78" x2="199.84" y2="26.14" xlink:href="#linear-gradient"/></defs><circle class="cls-1" cx="146" cy="146" r="120"/><path class="cls-2" d="M149.51,244.2a35.21,35.21,0,0,1-1-70.4,34.89,34.89,0,0,1,20.23,5.69,2.44,2.44,0,1,1-2.66,4.08,30.34,30.34,0,0,0-46.85,26.32,30.38,30.38,0,0,0,30.31,29.44l.91,0a30.35,30.35,0,0,0,29.42-31.22,2.44,2.44,0,0,1,2.36-2.51,2.55,2.55,0,0,1,2.51,2.37,35.25,35.25,0,0,1-34.14,36.24Z" transform="translate(-4 -4)"/><path class="cls-3" d="M146.76,224.52a2.44,2.44,0,0,1-1.72-.72l-18.15-18.15a2.44,2.44,0,0,1,3.44-3.45l16.43,16.44L179.41,186a2.44,2.44,0,0,1,3.45,3.44L148.49,223.8A2.45,2.45,0,0,1,146.76,224.52Z" transform="translate(-4 -4)"/><path class="cls-4" d="M44.73,178.76h-.16a2.44,2.44,0,0,1-2.27-2.59c.36-5.37,2-10.88,11.06-14.79,2.59-1.11,4.94-2.06,7-2.91a77.44,77.44,0,0,0,8.14-3.6,46.89,46.89,0,0,0-.06-7c-2.1-2.07-6.19-8.12-6.32-24,0-4.07.18-8.8,3-13.35A22.33,22.33,0,0,1,84.51,99.7a.38.38,0,0,1,.15,0l0,2.43-.43,2.4.43-2.4,0,2.44a17.44,17.44,0,0,0-15.36,8.57c-2.15,3.43-2.3,7.18-2.27,10.73.13,17.12,5,20.72,5.09,20.75a2.71,2.71,0,0,1,1.14,1.88c.83,10.56-.42,11.38-1.42,12-2.09,1.39-5.25,2.67-9.62,4.44-2.07.83-4.4,1.78-6.95,2.87-7.05,3-7.85,6.6-8.12,10.63A2.43,2.43,0,0,1,44.73,178.76Z" transform="translate(-4 -4)"/><path class="cls-5" d="M115.71,166.39a2.47,2.47,0,0,1-1.08-.25l-.57-.28c-2.52-1.07-4.77-2-6.79-2.79-4.47-1.81-7.71-3.12-9.83-4.54-1-.63-2.25-1.45-1.43-12a2.43,2.43,0,0,1,1.22-1.93h0s4.88-3.64,5-20.72c0-3.55-.13-7.3-2.26-10.73a17.51,17.51,0,0,0-15.26-8.55,2.47,2.47,0,0,1-2.48-2.44,2.4,2.4,0,0,1,2.4-2.43h0a22.34,22.34,0,0,1,19.43,10.84c2.82,4.54,3,9.27,3,13.34-.13,15.88-4.22,21.94-6.32,24a47.75,47.75,0,0,0,0,6.95,77.51,77.51,0,0,0,8.35,3.7c2,.82,4.32,1.75,6.82,2.81.25.1.56.25.86.4a2.44,2.44,0,0,1-1.07,4.63Z" transform="translate(-4 -4)"/><path class="cls-6" d="M183.27,166.87a2.44,2.44,0,0,1-1.21-4.55,18.08,18.08,0,0,1,1.87-.9c2.63-1.12,4.91-2,6.95-2.87a75.91,75.91,0,0,0,8.35-3.7,46.33,46.33,0,0,0,0-6.95c-2.1-2.07-6.19-8.13-6.32-24,0-4.09.18-8.82,3-13.35a22.27,22.27,0,0,1,19.38-10.84,2.47,2.47,0,0,1,2.47,2.43,2.4,2.4,0,0,1-2.4,2.44A17.41,17.41,0,0,0,200,113.14c-2.15,3.42-2.31,7.17-2.28,10.72.13,17.13,5,20.74,5.1,20.77a2.66,2.66,0,0,1,1.13,1.88c.82,10.57-.45,11.39-1.47,12-2.08,1.4-5.32,2.71-9.8,4.52-2,.81-4.26,1.72-6.73,2.77a16.31,16.31,0,0,0-1.49.71A2.41,2.41,0,0,1,183.27,166.87Z" transform="translate(-4 -4)"/><path class="cls-7" d="M255.27,179.05a2.42,2.42,0,0,1-2.43-2.28c-.22-3.58-.47-7.63-8.14-10.92-2.55-1.09-4.88-2-6.95-2.87-4.37-1.77-7.52-3-9.62-4.44-1-.66-2.24-1.48-1.42-12a2.46,2.46,0,0,1,1.23-1.93h0s4.87-3.63,5-20.7c0-3.55-.12-7.29-2.27-10.73a17.4,17.4,0,0,0-15.27-8.57h-.12a2.45,2.45,0,0,1-2.34-2.21,2.42,2.42,0,0,1,2-2.63,2,2,0,0,1,.49,0,22.35,22.35,0,0,1,19.37,10.85c2.85,4.56,3,9.28,3,13.36-.13,15.86-4.22,21.91-6.32,24a49.83,49.83,0,0,0-.06,7,77.44,77.44,0,0,0,8.14,3.6c2.1.85,4.45,1.8,7,2.91,9.62,4.12,10.76,9.95,11.08,15.1a2.44,2.44,0,0,1-2.28,2.58Z" transform="translate(-4 -4)"/><path class="cls-8" d="M99.8,183.74h-.16a2.44,2.44,0,0,1-2.27-2.6c.43-6.43,2.33-13,13.27-17.72,3.18-1.36,6.07-2.53,8.65-3.57a87.8,87.8,0,0,0,10.34-4.61,56.91,56.91,0,0,0,0-9.17c-2.42-2.26-7.6-9.4-7.76-29.28,0-4.94.21-10.67,3.63-16.13a26.92,26.92,0,0,1,23.33-13.1h.14V90l-.35,2.42.35-2.41v2.43a22,22,0,0,0-19.36,10.82c-2.73,4.35-2.92,9-2.89,13.5.17,21.53,6.46,26,6.52,26a2.62,2.62,0,0,1,1.16,1.88c1,12.67-.51,13.66-1.5,14.32-2.53,1.67-6.4,3.24-11.75,5.41-2.55,1-5.41,2.19-8.56,3.53-9.7,4.16-10.06,9.6-10.33,13.57A2.43,2.43,0,0,1,99.8,183.74Z" transform="translate(-4 -4)"/><path class="cls-9" d="M198.07,184.11a2.44,2.44,0,0,1-2.43-2.29c-.27-4.34-.6-9.74-10.35-13.92-3.15-1.34-6-2.5-8.56-3.53-5.35-2.17-9.21-3.74-11.75-5.41-1-.66-2.49-1.65-1.49-14.32a2.44,2.44,0,0,1,1.22-1.93h0s6.28-4.44,6.45-26c0-4.44-.16-9.15-2.89-13.51A22,22,0,0,0,149,92.43h-.1a2.46,2.46,0,0,1-2.38-2.24,2.4,2.4,0,0,1,2.05-2.6,3,3,0,0,1,.43,0,26.93,26.93,0,0,1,23.39,13.1c3.42,5.47,3.67,11.19,3.63,16.13-.16,19.88-5.33,27-7.76,29.28a55.48,55.48,0,0,0,0,9.17,86.75,86.75,0,0,0,10.33,4.61c2.58,1,5.47,2.21,8.65,3.57,11.54,5,12.91,11.94,13.3,18.1a2.44,2.44,0,0,1-2.29,2.58Z" transform="translate(-4 -4)"/><path class="cls-10" d="M149.44,22.47A2.43,2.43,0,0,1,147,20V6.44a2.44,2.44,0,1,1,4.87,0V20A2.43,2.43,0,0,1,149.44,22.47Z" transform="translate(-4 -4)"/><path class="cls-11" d="M98.45,29.44a2.41,2.41,0,0,1-2.25-1.5l-2.61-6.29a2.43,2.43,0,0,1,4.5-1.86l2.61,6.28a2.45,2.45,0,0,1-1.32,3.19A2.56,2.56,0,0,1,98.45,29.44Z" transform="translate(-4 -4)"/><path class="cls-12" d="M55.3,58.53a2.46,2.46,0,0,1-1.72-.71L48.77,53a2.44,2.44,0,0,1,3.45-3.45L57,54.37a2.44,2.44,0,0,1-1.73,4.16Z" transform="translate(-4 -4)"/><path class="cls-13" d="M26.57,101.92a2.38,2.38,0,0,1-.93-.19l-6.28-2.6a2.44,2.44,0,1,1,1.87-4.5l6.28,2.6a2.44,2.44,0,0,1-.94,4.69Z" transform="translate(-4 -4)"/><path class="cls-14" d="M20,153H6.44a2.44,2.44,0,1,1,0-4.88H20A2.44,2.44,0,1,1,20,153Z" transform="translate(-4 -4)"/><path class="cls-15" d="M20.72,206.59a2.43,2.43,0,0,1-.93-4.68l6.28-2.61a2.44,2.44,0,0,1,1.87,4.51l-6.29,2.6A2.52,2.52,0,0,1,20.72,206.59Z" transform="translate(-4 -4)"/><path class="cls-16" d="M51.29,251.94a2.43,2.43,0,0,1-1.73-4.15L54.37,243a2.44,2.44,0,1,1,3.45,3.44L53,251.23A2.41,2.41,0,0,1,51.29,251.94Z" transform="translate(-4 -4)"/><path class="cls-17" d="M96.88,282.15A2.35,2.35,0,0,1,96,282a2.44,2.44,0,0,1-1.32-3.18l2.6-6.29a2.44,2.44,0,1,1,4.5,1.87l-2.6,6.28A2.43,2.43,0,0,1,96.88,282.15Z" transform="translate(-4 -4)"/><path class="cls-18" d="M150.56,296a2.43,2.43,0,0,1-2.43-2.44V280a2.44,2.44,0,0,1,4.87,0v13.6A2.44,2.44,0,0,1,150.56,296Z" transform="translate(-4 -4)"/><path class="cls-19" d="M204.16,281.72a2.43,2.43,0,0,1-2.25-1.51l-2.61-6.28a2.44,2.44,0,0,1,4.51-1.87l2.6,6.29a2.44,2.44,0,0,1-1.32,3.18A2.35,2.35,0,0,1,204.16,281.72Z" transform="translate(-4 -4)"/><path class="cls-20" d="M249.51,251.15a2.46,2.46,0,0,1-1.73-.71l-4.8-4.81a2.44,2.44,0,0,1,3.44-3.45l4.81,4.81a2.44,2.44,0,0,1-1.72,4.16Z" transform="translate(-4 -4)"/><path class="cls-21" d="M279.71,205.56a2.35,2.35,0,0,1-.93-.19l-6.29-2.6a2.44,2.44,0,0,1,1.87-4.51l6.28,2.61a2.44,2.44,0,0,1-.93,4.69Z" transform="translate(-4 -4)"/><path class="cls-22" d="M293.56,151.88H280a2.44,2.44,0,0,1,0-4.88h13.6a2.44,2.44,0,0,1,0,4.88Z" transform="translate(-4 -4)"/><path class="cls-23" d="M273,100.88a2.41,2.41,0,0,1-2.25-1.5,2.44,2.44,0,0,1,1.31-3.19l6.29-2.6a2.43,2.43,0,1,1,1.86,4.5l-6.28,2.61A2.56,2.56,0,0,1,273,100.88Z" transform="translate(-4 -4)"/><path class="cls-24" d="M243.9,57.74a2.44,2.44,0,0,1-1.72-4.16L247,48.77a2.44,2.44,0,0,1,3.45,3.45L245.63,57A2.43,2.43,0,0,1,243.9,57.74Z" transform="translate(-4 -4)"/><path class="cls-25" d="M200.52,29a2.61,2.61,0,0,1-.94-.18,2.44,2.44,0,0,1-1.31-3.19l2.6-6.28a2.43,2.43,0,0,1,4.5,1.86l-2.6,6.29A2.44,2.44,0,0,1,200.52,29Z" transform="translate(-4 -4)"/></svg>