<svg xmlns="http://www.w3.org/2000/svg" xmlns:xlink="http://www.w3.org/1999/xlink" viewBox="0 0 254.25 254.25"><defs><style>.cls-1{fill:url(#linear-gradient);}.cls-2{fill:url(#linear-gradient-2);}.cls-3{fill:url(#linear-gradient-3);}.cls-4{opacity:0.4;}.cls-5{opacity:0.8;}.cls-6{fill:url(#linear-gradient-4);}.cls-7{fill:url(#linear-gradient-5);}.cls-8{fill:url(#linear-gradient-6);}.cls-9{fill:url(#linear-gradient-7);}.cls-10{fill:url(#linear-gradient-8);}.cls-11{fill:#fff;}.cls-12{fill:none;stroke:#231f20;}.cls-13{fill:url(#linear-gradient-9);}.cls-14{fill:url(#linear-gradient-10);}.cls-15{fill:url(#linear-gradient-11);}.cls-16{fill:url(#linear-gradient-12);}.cls-17{fill:url(#linear-gradient-13);}</style><linearGradient id="linear-gradient" x1="130" y1="242.22" x2="130" y2="17.77" gradientUnits="userSpaceOnUse"><stop offset="0" stop-color="#0eb8d2"/><stop offset="0.5" stop-color="#23d0b3"/><stop offset="1" stop-color="#6b9aef"/></linearGradient><linearGradient id="linear-gradient-2" x1="130" y1="257.13" x2="130" y2="2.87" xlink:href="#linear-gradient"/><linearGradient id="linear-gradient-3" x1="27.69" y1="130" x2="232.31" y2="130" xlink:href="#linear-gradient"/><linearGradient id="linear-gradient-4" x1="129.83" y1="188.28" x2="129.83" y2="175.46" xlink:href="#linear-gradient"/><linearGradient id="linear-gradient-5" x1="129.85" y1="84.62" x2="129.85" y2="72.68" xlink:href="#linear-gradient"/><linearGradient id="linear-gradient-6" x1="84.93" y1="128.53" x2="84.93" y2="126.67" xlink:href="#linear-gradient"/><linearGradient id="linear-gradient-7" x1="99.19" y1="177.41" x2="99.19" y2="156.53" xlink:href="#linear-gradient"/><linearGradient id="linear-gradient-8" x1="99.62" y1="104.44" x2="99.62" y2="82.59" xlink:href="#linear-gradient"/><linearGradient id="linear-gradient-9" x1="169.32" y1="128.53" x2="169.32" y2="126.67" xlink:href="#linear-gradient"/><linearGradient id="linear-gradient-10" x1="160.58" y1="177.41" x2="160.58" y2="155.83" xlink:href="#linear-gradient"/><linearGradient id="linear-gradient-11" x1="160.38" y1="104.44" x2="160.38" y2="82.59" xlink:href="#linear-gradient"/><linearGradient id="linear-gradient-12" x1="129.8" y1="174.86" x2="129.8" y2="86.09" xlink:href="#linear-gradient"/><linearGradient id="linear-gradient-13" x1="97.89" y1="130.47" x2="161.71" y2="130.47" xlink:href="#linear-gradient"/></defs><g id="Layer_1" data-name="Layer 1"><path class="cls-1" d="M21.22,153.18H17.79a114.66,114.66,0,0,0,89.05,89v-3.44A111.57,111.57,0,0,1,21.22,153.18Zm-3.45-46.33h3.45a111.55,111.55,0,0,1,85.62-85.63V17.77A114.73,114.73,0,0,0,17.77,106.85Zm221,0h3.45a114.73,114.73,0,0,0-89.06-89.08v3.45A111.58,111.58,0,0,1,238.78,106.85ZM153.17,238.77v3.44a114.7,114.7,0,0,0,89.05-89h-3.45A111.55,111.55,0,0,1,153.17,238.77Z" transform="translate(-2.87 -2.87)"/><path class="cls-2" d="M62.84,233.53l-2.7,2.7a127.24,127.24,0,0,0,139.75,0l-2.7-2.7A123.79,123.79,0,0,1,62.84,233.53ZM23.78,199.89l2.71-2.7a123.77,123.77,0,0,1,0-134.37l-2.71-2.71A127.31,127.31,0,0,0,23.78,199.89ZM197.19,26.49l2.71-2.71a127.33,127.33,0,0,0-139.78,0l2.71,2.71A123.79,123.79,0,0,1,197.19,26.49Zm36.34,170.68,2.7,2.69a127.25,127.25,0,0,0,0-139.72l-2.71,2.71A123.76,123.76,0,0,1,233.53,197.17Z" transform="translate(-2.87 -2.87)"/><path class="cls-3" d="M76,213.32l-2.17,2.17a102.42,102.42,0,0,0,112.47,0l-2.17-2.17A99.63,99.63,0,0,1,76,213.32ZM44.52,186.25l2.17-2.18a99.61,99.61,0,0,1,0-108.14l-2.18-2.18A102.43,102.43,0,0,0,44.52,186.25ZM184.08,46.69l2.18-2.17a102.45,102.45,0,0,0-112.5,0l2.18,2.18A99.63,99.63,0,0,1,184.08,46.69Zm29.24,137.37,2.17,2.17a102.43,102.43,0,0,0,0-112.46L213.32,76A99.6,99.6,0,0,1,213.32,184.06Z" transform="translate(-2.87 -2.87)"/><circle class="cls-4" cx="126.92" cy="127.12" r="49.1"/><g class="cls-5"><path class="cls-6" d="M129.8,188.28a57.27,57.27,0,0,1-34.09-11.15l.54-.74v-.93h.32l.24.18a55.87,55.87,0,0,0,66.06,0l1.1,1.49A57.29,57.29,0,0,1,129.8,188.28Z" transform="translate(-2.87 -2.87)"/><path class="cls-7" d="M161.85,84.62a55.95,55.95,0,0,0-64-.07L96.79,83a57.83,57.83,0,0,1,66.13.07Z" transform="translate(-2.87 -2.87)"/><rect class="cls-8" x="73.92" y="126.67" width="22.02" height="1.85"/><path class="cls-9" d="M94.87,177.41H85.34v-1.86h9.53a10.57,10.57,0,0,0,9.32-5.56l7.21-13.46,1.63.87-7.21,13.46A12.43,12.43,0,0,1,94.87,177.41Z" transform="translate(-2.87 -2.87)"/><path class="cls-10" d="M111.92,104.44,104.18,90a10.57,10.57,0,0,0-9.31-5.58H85.7V82.59h9.17a12.43,12.43,0,0,1,10.95,6.55l7.73,14.42Z" transform="translate(-2.87 -2.87)"/><circle class="cls-4" cx="67.78" cy="80.64" r="15.16"/><path class="cls-11" d="M64.88,87.94a.37.37,0,0,1-.24-.1.36.36,0,0,1-.11-.25.31.31,0,0,1,0-.11l3.57-10.21a.71.71,0,0,1,.22-.35.67.67,0,0,1,.5-.18h3.47a.64.64,0,0,1,.49.18.74.74,0,0,1,.23.35L76.6,87.48a.34.34,0,0,1,0,.11.35.35,0,0,1-.1.25.37.37,0,0,1-.25.1h-3a.61.61,0,0,1-.44-.14.76.76,0,0,1-.18-.26l-.39-1.06H68.85l-.38,1.06a.76.76,0,0,1-.18.26.59.59,0,0,1-.45.14Zm4.79-4.58h1.81l-.92-3Z" transform="translate(-2.87 -2.87)"/><circle class="cls-12" cx="67.78" cy="80.64" r="15.16"/><circle class="cls-12" cx="67.78" cy="80.64" r="15.16"/><path class="cls-12" d="M64.88,87.94a.37.37,0,0,1-.24-.1.36.36,0,0,1-.11-.25.31.31,0,0,1,0-.11l3.57-10.21a.71.71,0,0,1,.22-.35.67.67,0,0,1,.5-.18h3.47a.64.64,0,0,1,.49.18.74.74,0,0,1,.23.35L76.6,87.48a.34.34,0,0,1,0,.11.35.35,0,0,1-.1.25.37.37,0,0,1-.25.1h-3a.61.61,0,0,1-.44-.14.76.76,0,0,1-.18-.26l-.39-1.06H68.85l-.38,1.06a.76.76,0,0,1-.18.26.59.59,0,0,1-.45.14Zm4.79-4.58h1.81l-.92-3Z" transform="translate(-2.87 -2.87)"/><circle class="cls-4" cx="67.78" cy="173.61" r="15.16"/><path class="cls-11" d="M70.48,182a7.64,7.64,0,0,1-2.72-.45,4.05,4.05,0,0,1-1.88-1.41,4.53,4.53,0,0,1-.76-2.48c0-.44,0-.9,0-1.41s0-1,0-1.44a4.32,4.32,0,0,1,.78-2.44A4.22,4.22,0,0,1,67.8,171a7.35,7.35,0,0,1,2.68-.46,8.52,8.52,0,0,1,2,.23,5.76,5.76,0,0,1,1.72.73,3.71,3.71,0,0,1,1.22,1.27,3.77,3.77,0,0,1,.48,1.86.38.38,0,0,1-.36.36H72.26a.57.57,0,0,1-.38-.11.85.85,0,0,1-.21-.36,1.25,1.25,0,0,0-.48-.69,1.5,1.5,0,0,0-.72-.17,1.2,1.2,0,0,0-.84.28,1.42,1.42,0,0,0-.35,1c0,.88,0,1.78,0,2.69a1.47,1.47,0,0,0,.35,1,1.2,1.2,0,0,0,.84.28,1.44,1.44,0,0,0,.73-.19,1.27,1.27,0,0,0,.47-.68.61.61,0,0,1,.21-.36.58.58,0,0,1,.38-.1h3.26a.37.37,0,0,1,.25.1.36.36,0,0,1,.11.25,3.63,3.63,0,0,1-1.7,3.14,5.76,5.76,0,0,1-1.72.73A8.52,8.52,0,0,1,70.48,182Z" transform="translate(-2.87 -2.87)"/><circle class="cls-12" cx="67.78" cy="173.61" r="15.16"/><circle class="cls-12" cx="67.78" cy="173.61" r="15.16"/><path class="cls-12" d="M70.48,182a7.64,7.64,0,0,1-2.72-.45,4.05,4.05,0,0,1-1.88-1.41,4.53,4.53,0,0,1-.76-2.48c0-.44,0-.9,0-1.41s0-1,0-1.44a4.32,4.32,0,0,1,.78-2.44A4.22,4.22,0,0,1,67.8,171a7.35,7.35,0,0,1,2.68-.46,8.52,8.52,0,0,1,2,.23,5.76,5.76,0,0,1,1.72.73,3.71,3.71,0,0,1,1.22,1.27,3.77,3.77,0,0,1,.48,1.86.38.38,0,0,1-.36.36H72.26a.57.57,0,0,1-.38-.11.85.85,0,0,1-.21-.36,1.25,1.25,0,0,0-.48-.69,1.5,1.5,0,0,0-.72-.17,1.2,1.2,0,0,0-.84.28,1.42,1.42,0,0,0-.35,1c0,.88,0,1.78,0,2.69a1.47,1.47,0,0,0,.35,1,1.2,1.2,0,0,0,.84.28,1.44,1.44,0,0,0,.73-.19,1.27,1.27,0,0,0,.47-.68.61.61,0,0,1,.21-.36.58.58,0,0,1,.38-.1h3.26a.37.37,0,0,1,.25.1.36.36,0,0,1,.11.25,3.63,3.63,0,0,1-1.7,3.14,5.76,5.76,0,0,1-1.72.73A8.52,8.52,0,0,1,70.48,182Z" transform="translate(-2.87 -2.87)"/><circle class="cls-4" cx="58.91" cy="127.65" r="15.16"/><path class="cls-11" d="M56.81,135.17a.41.41,0,0,1-.43-.43V124.41a.45.45,0,0,1,.12-.31.46.46,0,0,1,.31-.13h5.31a7.09,7.09,0,0,1,2.51.38,2.83,2.83,0,0,1,1.45,1.12,3.38,3.38,0,0,1,.47,1.86,2,2,0,0,1-.21.92,2.45,2.45,0,0,1-.52.68,2.23,2.23,0,0,1-.55.4,2.56,2.56,0,0,1,1.07.89,2.41,2.41,0,0,1,.45,1.43,3.4,3.4,0,0,1-.53,2,3.16,3.16,0,0,1-1.52,1.16,6.84,6.84,0,0,1-2.46.38Zm3.57-7h1.34a.55.55,0,0,0,.5-.23.83.83,0,0,0,0-1,.54.54,0,0,0-.5-.24H60.38Zm0,4.24h1.48a.63.63,0,0,0,.57-.26,1,1,0,0,0,.17-.52.92.92,0,0,0-.18-.54.68.68,0,0,0-.56-.25H60.38Z" transform="translate(-2.87 -2.87)"/><circle class="cls-12" cx="58.91" cy="127.65" r="15.16"/><circle class="cls-12" cx="58.91" cy="127.65" r="15.16"/><path class="cls-12" d="M56.81,135.17a.41.41,0,0,1-.43-.43V124.41a.45.45,0,0,1,.12-.31.46.46,0,0,1,.31-.13h5.31a7.09,7.09,0,0,1,2.51.38,2.83,2.83,0,0,1,1.45,1.12,3.38,3.38,0,0,1,.47,1.86,2,2,0,0,1-.21.92,2.45,2.45,0,0,1-.52.68,2.23,2.23,0,0,1-.55.4,2.56,2.56,0,0,1,1.07.89,2.41,2.41,0,0,1,.45,1.43,3.4,3.4,0,0,1-.53,2,3.16,3.16,0,0,1-1.52,1.16,6.84,6.84,0,0,1-2.46.38Zm3.57-7h1.34a.55.55,0,0,0,.5-.23.83.83,0,0,0,0-1,.54.54,0,0,0-.5-.24H60.38Zm0,4.24h1.48a.63.63,0,0,0,.57-.26,1,1,0,0,0,.17-.52.92.92,0,0,0-.18-.54.68.68,0,0,0-.56-.25H60.38Z" transform="translate(-2.87 -2.87)"/><rect class="cls-13" x="158.31" y="126.67" width="22.02" height="1.85"/><circle class="cls-4" cx="195.33" cy="127.54" r="15.16"/><path class="cls-11" d="M196.87,135.44a.41.41,0,0,1-.3-.12.42.42,0,0,1-.13-.31v-3.15l-3.6-7.12a.19.19,0,0,1,0-.07.22.22,0,0,1,0-.08.33.33,0,0,1,.1-.24.34.34,0,0,1,.25-.11h3a.69.69,0,0,1,.48.16,1.16,1.16,0,0,1,.19.24l1.6,3.22,1.6-3.22a.88.88,0,0,1,.19-.24.69.69,0,0,1,.48-.16h3a.34.34,0,0,1,.25.11.33.33,0,0,1,.1.24.22.22,0,0,1,0,.08.19.19,0,0,1,0,.07l-3.6,7.12V135a.42.42,0,0,1-.13.31.42.42,0,0,1-.3.12Z" transform="translate(-2.87 -2.87)"/><circle class="cls-12" cx="195.33" cy="127.54" r="15.16"/><circle class="cls-12" cx="195.33" cy="127.54" r="15.16"/><path class="cls-12" d="M196.87,135.44a.41.41,0,0,1-.3-.12.42.42,0,0,1-.13-.31v-3.15l-3.6-7.12a.19.19,0,0,1,0-.07.22.22,0,0,1,0-.08.33.33,0,0,1,.1-.24.34.34,0,0,1,.25-.11h3a.69.69,0,0,1,.48.16,1.16,1.16,0,0,1,.19.24l1.6,3.22,1.6-3.22a.88.88,0,0,1,.19-.24.69.69,0,0,1,.48-.16h3a.34.34,0,0,1,.25.11.33.33,0,0,1,.1.24.22.22,0,0,1,0,.08.19.19,0,0,1,0,.07l-3.6,7.12V135a.42.42,0,0,1-.13.31.42.42,0,0,1-.3.12Z" transform="translate(-2.87 -2.87)"/><path class="cls-14" d="M174.66,177.41h-9.53a12.43,12.43,0,0,1-10.95-6.55l-5.34-10-2.33-4.35,1.75-.71,2.21,4.18,5.35,10a10.55,10.55,0,0,0,9.31,5.56h9.53Z" transform="translate(-2.87 -2.87)"/><path class="cls-15" d="M148.08,104.44l-1.63-.88,7.73-14.42a12.43,12.43,0,0,1,10.95-6.55h9.18v1.85h-9.18A10.57,10.57,0,0,0,155.82,90Z" transform="translate(-2.87 -2.87)"/><circle class="cls-4" cx="186.46" cy="80.64" r="15.16"/><path class="cls-11" d="M183.76,88.21a.38.38,0,0,1-.35-.35.17.17,0,0,1,0-.07.3.3,0,0,1,0-.11l3.36-5.2-3-4.94a.35.35,0,0,1-.05-.18.35.35,0,0,1,.1-.25.33.33,0,0,1,.25-.1h3.47a.59.59,0,0,1,.47.16,1.34,1.34,0,0,1,.2.24l1.12,2,1.22-2a1.56,1.56,0,0,1,.21-.24.6.6,0,0,1,.46-.16h3.31a.33.33,0,0,1,.25.1.36.36,0,0,1,.11.25.41.41,0,0,1,0,.18l-3.09,4.89,3.41,5.25a.76.76,0,0,1,0,.11s0,0,0,.07a.32.32,0,0,1-.11.24.34.34,0,0,1-.25.11h-3.6a.65.65,0,0,1-.46-.15.91.91,0,0,1-.19-.22l-1.39-2.14-1.33,2.14a.91.91,0,0,1-.19.22.65.65,0,0,1-.47.15Z" transform="translate(-2.87 -2.87)"/><circle class="cls-12" cx="186.46" cy="80.64" r="15.16"/><circle class="cls-12" cx="186.46" cy="80.64" r="15.16"/><path class="cls-12" d="M183.76,88.21a.38.38,0,0,1-.35-.35.17.17,0,0,1,0-.07.3.3,0,0,1,0-.11l3.36-5.2-3-4.94a.35.35,0,0,1-.05-.18.35.35,0,0,1,.1-.25.33.33,0,0,1,.25-.1h3.47a.59.59,0,0,1,.47.16,1.34,1.34,0,0,1,.2.24l1.12,2,1.22-2a1.56,1.56,0,0,1,.21-.24.6.6,0,0,1,.46-.16h3.31a.33.33,0,0,1,.25.1.36.36,0,0,1,.11.25.41.41,0,0,1,0,.18l-3.09,4.89,3.41,5.25a.76.76,0,0,1,0,.11s0,0,0,.07a.32.32,0,0,1-.11.24.34.34,0,0,1-.25.11h-3.6a.65.65,0,0,1-.46-.15.91.91,0,0,1-.19-.22l-1.39-2.14-1.33,2.14a.91.91,0,0,1-.19.22.65.65,0,0,1-.47.15Z" transform="translate(-2.87 -2.87)"/><circle class="cls-4" cx="186.46" cy="173.61" r="15.16"/><path class="cls-11" d="M184.4,182.14a.44.44,0,0,1-.43-.43V179.4a.64.64,0,0,1,.09-.36,1.45,1.45,0,0,1,.15-.2l4.48-4.65h-4.13a.43.43,0,0,1-.3-.13.42.42,0,0,1-.13-.31v-2.38a.38.38,0,0,1,.13-.3.39.39,0,0,1,.3-.13h8.77a.42.42,0,0,1,.31.13.41.41,0,0,1,.12.3v2.27a.73.73,0,0,1,0,.3.76.76,0,0,1-.15.23l-4.24,4.69h4.22a.44.44,0,0,1,.43.43v2.42a.41.41,0,0,1-.13.3.38.38,0,0,1-.3.13Z" transform="translate(-2.87 -2.87)"/><circle class="cls-12" cx="186.46" cy="173.61" r="15.16"/><circle class="cls-12" cx="186.46" cy="173.61" r="15.16"/><path class="cls-12" d="M184.4,182.14a.44.44,0,0,1-.43-.43V179.4a.64.64,0,0,1,.09-.36,1.45,1.45,0,0,1,.15-.2l4.48-4.65h-4.13a.43.43,0,0,1-.3-.13.42.42,0,0,1-.13-.31v-2.38a.38.38,0,0,1,.13-.3.39.39,0,0,1,.3-.13h8.77a.42.42,0,0,1,.31.13.41.41,0,0,1,.12.3v2.27a.73.73,0,0,1,0,.3.76.76,0,0,1-.15.23l-4.24,4.69h4.22a.44.44,0,0,1,.43.43v2.42a.41.41,0,0,1-.13.3.38.38,0,0,1-.3.13Z" transform="translate(-2.87 -2.87)"/><path class="cls-16" d="M129.8,174.86a44.39,44.39,0,1,1,44.38-44.39A44.44,44.44,0,0,1,129.8,174.86Zm0-86.92a42.54,42.54,0,1,0,42.53,42.53A42.58,42.58,0,0,0,129.8,87.94Z" transform="translate(-2.87 -2.87)"/></g><path class="cls-17" d="M129.8,162.38a31.91,31.91,0,1,1,31.91-31.91A31.94,31.94,0,0,1,129.8,162.38Zm0-62a30.06,30.06,0,1,0,30.06,30.05A30.09,30.09,0,0,0,129.8,100.42Z" transform="translate(-2.87 -2.87)"/><path class="cls-11" d="M106.44,136.33a.5.5,0,0,1-.35-.14.49.49,0,0,1-.15-.35V124.08a.46.46,0,0,1,.15-.34.47.47,0,0,1,.35-.15h2.87a.73.73,0,0,1,.53.17,1.83,1.83,0,0,1,.22.25l3.07,5v-5a.46.46,0,0,1,.15-.34.45.45,0,0,1,.34-.15h3.3a.45.45,0,0,1,.34.15.46.46,0,0,1,.15.34v11.76a.49.49,0,0,1-.15.35.48.48,0,0,1-.34.14H114a.73.73,0,0,1-.53-.17,2.06,2.06,0,0,1-.21-.25l-3.08-4.64v4.57a.49.49,0,0,1-.15.35.48.48,0,0,1-.34.14Z" transform="translate(-2.87 -2.87)"/><path class="cls-11" d="M119.9,136.33a.48.48,0,0,1-.34-.14.49.49,0,0,1-.15-.35V124.08a.46.46,0,0,1,.15-.34.45.45,0,0,1,.34-.15h9.34a.51.51,0,0,1,.49.49v2.57a.49.49,0,0,1-.15.35.49.49,0,0,1-.34.14h-5.46v1.15h5.06a.49.49,0,0,1,.34.14.49.49,0,0,1,.15.35v2.37a.51.51,0,0,1-.49.49h-5.06v1.14h5.6a.47.47,0,0,1,.35.15.5.5,0,0,1,.14.35v2.56a.52.52,0,0,1-.14.35.5.5,0,0,1-.35.14Z" transform="translate(-2.87 -2.87)"/><path class="cls-11" d="M136.86,136.51a8.78,8.78,0,0,1-3.33-.54,4.66,4.66,0,0,1-2-1.44,3.42,3.42,0,0,1-.69-1.89.36.36,0,0,1,.12-.28.39.39,0,0,1,.28-.12h3.46a1,1,0,0,1,.45.08,1.82,1.82,0,0,1,.33.23,2.88,2.88,0,0,0,.38.22,1.36,1.36,0,0,0,.43.15,3.1,3.1,0,0,0,.54.05,3,3,0,0,0,1-.14c.25-.09.37-.22.37-.37a.43.43,0,0,0-.2-.37,2.46,2.46,0,0,0-.72-.26,13.18,13.18,0,0,0-1.42-.23,9.37,9.37,0,0,1-2.5-.67,3.85,3.85,0,0,1-1.62-1.3,3.45,3.45,0,0,1-.58-2,3.62,3.62,0,0,1,.7-2.19,4.59,4.59,0,0,1,2-1.47,8.25,8.25,0,0,1,5.32-.17,5.61,5.61,0,0,1,1.79.93,4.64,4.64,0,0,1,1.11,1.22,2.84,2.84,0,0,1,.4,1.26.38.38,0,0,1-.12.28.37.37,0,0,1-.27.12h-3.64a1.06,1.06,0,0,1-.4-.07,1.53,1.53,0,0,1-.32-.22,1.46,1.46,0,0,0-.34-.21,1.41,1.41,0,0,0-.63-.12,1.25,1.25,0,0,0-.66.14.41.41,0,0,0,0,.68,1.43,1.43,0,0,0,.6.25,10.12,10.12,0,0,0,1.26.22,10.77,10.77,0,0,1,2.92.7,3.4,3.4,0,0,1,1.6,1.29,3.68,3.68,0,0,1,.5,2,3.47,3.47,0,0,1-.79,2.29A5,5,0,0,1,140,136,8.78,8.78,0,0,1,136.86,136.51Z" transform="translate(-2.87 -2.87)"/><path class="cls-11" d="M147.41,136.33a.49.49,0,0,1-.34-.14.49.49,0,0,1-.15-.35v-8.33h-3a.45.45,0,0,1-.34-.15.47.47,0,0,1-.15-.35v-2.93a.46.46,0,0,1,.15-.34.45.45,0,0,1,.34-.15h10.67a.51.51,0,0,1,.49.49V127a.47.47,0,0,1-.15.35.46.46,0,0,1-.34.15h-3v8.33a.47.47,0,0,1-.14.35.5.5,0,0,1-.35.14Z" transform="translate(-2.87 -2.87)"/></g></svg>