<svg xmlns="http://www.w3.org/2000/svg" xmlns:xlink="http://www.w3.org/1999/xlink" viewBox="0 0 173.99 186.06"><defs><style>.cls-1{fill:#59251b;}.cls-1,.cls-2,.cls-3,.cls-4,.cls-5{fill-rule:evenodd;}.cls-2{fill:#fffcf5;}.cls-3{fill:#f1e3d6;}.cls-11,.cls-4{fill:#fff;}.cls-5{fill:#ff8884;}.cls-15,.cls-6{fill:#d82e2e;}.cls-6{stroke:#532217;}.cls-12,.cls-6,.cls-7{stroke-miterlimit:10;}.cls-7{fill:none;}.cls-12,.cls-7{stroke:#572319;}.cls-8{opacity:0.1;}.cls-9{opacity:0.15;}.cls-10{opacity:0.2;}.cls-12{fill:#7d5d53;}.cls-13,.cls-18{opacity:0.05;}.cls-14{fill:#572319;}.cls-16{fill:#f9e487;}.cls-17{fill:#a2a2e0;}.cls-18{fill:url(#linear-gradient);}</style><linearGradient id="linear-gradient" x1="36.77" y1="96.39" x2="137.04" y2="96.39" gradientUnits="userSpaceOnUse"><stop offset="0" stop-color="#fff"/><stop offset="1"/></linearGradient></defs><g id="Layer_2" data-name="Layer 2"><g id="Layer_2-2" data-name="Layer 2"><g id="Happy"><path class="cls-1" d="M122.46,60.1c25.3,11.76,42,32.27,44.5,60.85,1.09,12.13-1.46,23.88-8.28,34.05C143.6,177.47,112.74,186.06,87,186.06S30.4,177.47,15.32,155C8.5,144.83,6,133.08,7,121,9.59,92.37,26.24,71.86,51.55,60.1A17.41,17.41,0,0,1,69,43.38a17.19,17.19,0,0,1,4.47.59,17.44,17.44,0,0,1,27.16,0A17.4,17.4,0,0,1,122.46,60.1Z"/><path class="cls-2" d="M118.92,57.06A13.21,13.21,0,0,0,99,46.45c-2.27,1.22-5.71,5.58-6.83,8.67A19.58,19.58,0,0,1,97.25,43.5a13.2,13.2,0,0,0-22.59,3c-1.06,2.35-1.14,7.89-.16,11a19.62,19.62,0,0,1-3-12.39A13.21,13.21,0,0,0,54.71,57.81a13.43,13.43,0,0,0,.23,2.47h0c.62,2.5,4,6.91,6.7,8.77a19.42,19.42,0,0,1-9.71-7.44C26.83,73.25,10.59,93.33,8.09,121.39c-7.48,83.77,165,83.77,157.47,0-2.6-29.17-20-49.71-46.85-61.11-2.18-1.39-7.66-2.24-10.91-1.71A19.09,19.09,0,0,1,118.92,57.06Z"/><path class="cls-3" d="M61.64,69.05a19.42,19.42,0,0,1-9.71-7.44l-2.69,1.3C52.16,66.39,56.47,68.41,61.64,69.05Z"/><path class="cls-3" d="M74.23,56.46q.12.54.27,1l-.27-1Zm.27,1c-3.45-3.9-5.33-8.27-5.21-12.81a13.36,13.36,0,0,1,2.2.42A19.62,19.62,0,0,0,74.5,57.48Z"/><path class="cls-3" d="M92.28,54.81l-.12.31.12-.31Zm-.12.31c-.54-5.22.5-9.9,3.28-13.53a13.11,13.11,0,0,1,1.81,1.91A19.58,19.58,0,0,0,92.16,55.12Z"/><path class="cls-3" d="M118.92,57.06a13.32,13.32,0,0,0-.5-2.91,19.7,19.7,0,0,0-10.62,4.42A19.09,19.09,0,0,1,118.92,57.06Z"/><path class="cls-1" d="M86.85,130.86a12.8,12.8,0,0,1,2.22,0c.56.12.9.42.89.76s-.36.64-.92,1a6,6,0,0,1-2.22.73,5.92,5.92,0,0,1-2.22-.73c-.56-.31-.92-.62-.92-1s.37-.64.95-.76A15.17,15.17,0,0,1,86.85,130.86Z"/><path class="cls-1" d="M77.1,147.35c3.09-.45,6.37-2.37,9.72-4.84,3.35,2.47,6.63,4.39,9.73,4.84,6,.89,8.51-2.68,9.81-4-1.39,3.43-5.91,5.73-9.38,5.57l0,.1a6.47,6.47,0,0,1-3.6,4.14,15.28,15.28,0,0,1-13.08,0,6.53,6.53,0,0,1-3.6-4.14l0-.1c-3.46.16-8-2.14-9.37-5.57C68.58,144.67,71,148.24,77.1,147.35Z"/><path class="cls-1" d="M79.56,86.81c9.4-4,9.48-16.32,5.28-21.42C85.41,75,83.48,81.93,79.56,86.81Z"/><path class="cls-1" d="M89.37,68.36C91.61,77.3,95.8,79.79,101,78.86,92.12,72.73,92.14,71.28,89.37,68.36Z"/><path class="cls-1" d="M80.88,68.29c.66,5.49-4.9,11.77-9.26,11.21C75.34,77.45,78.24,72.82,80.88,68.29Z"/><path class="cls-1" d="M53.62,112.82A10.43,10.43,0,1,1,43.2,123.24,10.42,10.42,0,0,1,53.62,112.82Z"/><path class="cls-4" d="M56.66,114.69a4.8,4.8,0,1,1-4.8,4.8A4.8,4.8,0,0,1,56.66,114.69Z"/><path class="cls-5" d="M95.71,148.77c-.55,2.6-4.32,4.6-8.89,4.6s-8.33-2-8.89-4.6a24.42,24.42,0,0,0,8.89-4.36A24.5,24.5,0,0,0,95.71,148.77Z"/><path class="cls-3" d="M17.7,156.29c35.42,46.53,154.09,34.9,147.86-34.9a70.06,70.06,0,0,0-10.29-31.46C164.91,145,140.54,180.17,76,176.36,56.35,175.2,35.29,167.77,17.7,156.29Z"/><path class="cls-1" d="M120,112.82a10.43,10.43,0,1,0,10.43,10.42A10.42,10.42,0,0,0,120,112.82Z"/><path class="cls-4" d="M117,114.69a4.8,4.8,0,1,0,4.8,4.8A4.8,4.8,0,0,0,117,114.69Z"/></g><polygon class="cls-6" points="35.89 102.76 137.89 102.76 162.09 96.57 161.89 81.8 139.23 54.95 116.37 39.99 97.13 35.04 75.61 35.04 56.75 40.19 34.27 55.14 12.18 81.52 11.8 96.57 35.89 102.76"/><polyline class="cls-7" points="12.18 81.52 43.13 90 131.04 90.19 161.89 81.8"/><polyline class="cls-7" points="139.23 54.95 116.28 63.9 57.51 63.9 34.27 55.14"/><polyline class="cls-7" points="56.75 40.19 75.23 44.28 98.85 44.28 116.37 39.99"/><polyline class="cls-7" points="98.85 44.28 116.28 63.9 131.04 90.19 137.89 102.76"/><polyline class="cls-7" points="75.23 44.28 57.51 63.9 43.13 90 35.89 102.76"/><polygon class="cls-6" points="57.56 63.92 116.25 63.92 134.37 43.93 131.72 28.44 114.18 7.88 86.94 0.52 59.5 8.13 42.16 28.64 39.63 43.61 57.56 63.92"/><polygon class="cls-8" points="44.2 32.06 57.7 63.45 62.59 59.17 52.09 38.84 44.2 32.06"/><polyline class="cls-8" points="111.55 58.97 121.81 38.48 129.86 31.2 116.53 63.36 111.55 58.97"/><polygon class="cls-9" points="131.43 29.71 133.83 43.78 117.87 61.39 131.43 29.71"/><polygon class="cls-9" points="42.42 30.07 40.16 43.46 55.85 61.24 42.42 30.07"/><polygon class="cls-10" points="62.99 59.81 111.05 59.69 114.95 63.4 58.88 63.42 62.99 59.81"/><polygon class="cls-11" points="52.47 38.91 66.23 14.61 77.54 30.2 71.69 43.6 52.47 38.91"/><polyline class="cls-11" points="52.47 38.91 62.81 59.31 111.24 59.19 121.39 38.88 107.94 14.63 96.42 30.15"/><polyline class="cls-7" points="66.23 14.61 107.97 14.61 114.18 7.88"/><line class="cls-7" x1="62.8" y1="59.29" x2="111.27" y2="59.16"/><polyline class="cls-7" points="66.23 14.61 77.57 30.09 71.91 43.56 52.38 38.98 62.8 59.29 57.56 63.92 43.09 30.36 52.38 38.98 66.23 14.61 59.5 8.13"/><polyline class="cls-7" points="96.44 30.19 107.97 14.61 121.43 38.85 130.7 30.17 116.25 63.92 111.27 59.16 121.43 38.85"/><line class="cls-7" x1="101.9" y1="43.66" x2="121.43" y2="38.85"/><line class="cls-7" x1="96.39" y1="30.1" x2="101.9" y2="43.81"/><polygon class="cls-12" points="77.14 29.48 96.93 29.45 102.24 43.52 92.12 54.63 87 65.42 81.61 54.47 71.73 43.49 77.14 29.48"/><polyline class="cls-9" points="97.13 43.85 93.74 52.1 100.98 44.15 97.13 43.85"/><polyline class="cls-9" points="76.75 43.74 79.95 51.88 72.9 44.05 76.75 43.74"/><polygon class="cls-10" points="35.37 55.01 55.85 62.74 43.98 49.28 35.37 55.01"/><polygon class="cls-10" points="138.13 54.83 118.07 62.66 129.99 49.5 138.13 54.83"/><polygon class="cls-13" points="13.35 96.45 35.65 102.18 42.38 90.31 18.76 83.84 13.35 96.45"/><polygon class="cls-13" points="138.15 102.17 160.47 96.46 155 84.2 131.78 90.5 138.15 102.17"/><polygon class="cls-8" points="34.44 55.73 56.78 64.17 42.88 89.41 19.45 82.99 28.33 63.03 34.44 55.73"/><polygon class="cls-8" points="139.07 55.55 117.01 64.15 131.28 89.59 154.59 83.27 145.77 63.5 139.07 55.55"/><polyline class="cls-7" points="77.17 29.5 79.45 37.45 94.53 37.45 96.87 29.53"/><polyline class="cls-7" points="94.53 37.45 96.75 43.99 102.2 43.54"/><line class="cls-7" x1="96.75" y1="43.99" x2="91.74" y2="55.43"/><polyline class="cls-7" points="81.89 55.03 76.91 43.74 71.78 43.49"/><line class="cls-7" x1="76.91" y1="43.74" x2="79.45" y2="37.45"/><circle class="cls-14" cx="66.35" cy="29.69" r="2.55"/><circle class="cls-14" cx="106.35" cy="29.69" r="2.55"/><polygon class="cls-15" points="26.02 41.65 27.86 62.84 1.16 122.94 12.46 56.61 26.02 41.65"/><polyline class="cls-16" points="8.73 78.45 10.81 81.78 14.45 78.86 16.11 82.78 19.02 82.95 12.19 98.23 5.57 96.85 8.73 78.45"/><polygon class="cls-17" points="5.91 95.24 7.68 94.61 8.99 97.17 11.02 95.97 12.2 97.7 1.38 122.46 5.91 95.24"/><polygon class="cls-7" points="26.02 41.65 27.86 62.84 1.16 122.94 12.46 56.61 26.02 41.65"/><polygon class="cls-15" points="147.89 41.71 146.07 62.9 172.82 122.98 161.46 56.66 147.89 41.71"/><polyline class="cls-16" points="165.22 78.55 163.14 81.88 159.5 78.95 157.84 82.87 154.93 83.05 161.77 98.32 168.39 96.94 165.22 78.55"/><polygon class="cls-17" points="168.06 95.33 166.28 94.7 164.97 97.26 162.94 96.07 161.77 97.8 172.61 122.55 168.06 95.33"/><polygon class="cls-7" points="147.89 41.71 146.07 62.9 172.82 122.98 161.46 56.66 147.89 41.71"/><polygon class="cls-18" points="43.42 90.51 130.71 90.7 137.04 102.27 36.77 102.25 43.42 90.51"/></g></g></svg>