<svg id="Layer_1" data-name="Layer 1" xmlns="http://www.w3.org/2000/svg" xmlns:xlink="http://www.w3.org/1999/xlink" viewBox="0 0 295.5 295.5"><defs><style>.cls-1{opacity:0.4;}.cls-2{fill:url(#linear-gradient);}</style><linearGradient id="linear-gradient" x1="70.7" y1="287.35" x2="229.28" y2="12.68" gradientUnits="userSpaceOnUse"><stop offset="0" stop-color="#6b9aef"/><stop offset="0.31" stop-color="#65c48c"/><stop offset="0.55" stop-color="#49b8ae"/><stop offset="0.84" stop-color="#2babd2"/><stop offset="1" stop-color="#1fa6e0"/></linearGradient></defs><circle class="cls-1" cx="147.75" cy="147.75" r="117.5"/><path class="cls-2" d="M188.31,222.45H225a1.7,1.7,0,0,0,1.7-1.7V103.86h9.57a1.72,1.72,0,0,0,1.71-1.71,1.7,1.7,0,0,0-.81-1.45L207.79,73.14a1.69,1.69,0,0,0-2.33,0l-29.55,27.77a1.71,1.71,0,0,0,1.17,3h9.52V220.75A1.7,1.7,0,0,0,188.31,222.45Zm-6.93-122,25.25-23.73,25.24,23.73H225a1.71,1.71,0,0,0-1.71,1.7V219H190V102.15a1.7,1.7,0,0,0-1.7-1.7Zm-111.21,122h36.64a1.7,1.7,0,0,0,1.7-1.7V140.19H118a1.71,1.71,0,0,0,1.16-2.95L89.65,109.48a1.69,1.69,0,0,0-2.33,0L57.77,137.24a1.71,1.71,0,0,0,1.17,2.95h9.52v80.56A1.7,1.7,0,0,0,70.17,222.45Zm-6.93-85.67,25.25-23.72,25.24,23.72h-6.92a1.71,1.71,0,0,0-1.71,1.7V219H71.87V138.48a1.7,1.7,0,0,0-1.7-1.7Zm66,85.67h36.64a1.7,1.7,0,0,0,1.7-1.7V122h9.53a1.7,1.7,0,0,0,1.16-2.94L148.73,91.31a1.7,1.7,0,0,0-2.34,0l-29.55,27.77A1.7,1.7,0,0,0,118,122h9.52v98.73A1.71,1.71,0,0,0,129.24,222.45Zm-6.93-103.84,25.25-23.72,25.24,23.72h-6.92a1.72,1.72,0,0,0-1.71,1.71V219H130.94V120.32a1.71,1.71,0,0,0-1.7-1.71ZM254.52,254.52A148.25,148.25,0,0,1,77.18,278.7c-1.85-1.06-3.7-2.17-5.53-3.31a150.5,150.5,0,0,1-26.17-20.87c-.79-.8-1.6-1.63-2.44-2.52v16.42a1.71,1.71,0,1,1-3.41,0V248a1.71,1.71,0,0,1,1.7-1.71H61.78a1.71,1.71,0,0,1,0,3.41H45.54c.81.86,1.59,1.66,2.35,2.42a146.65,146.65,0,0,0,25.58,20.4c1.77,1.11,3.59,2.2,5.4,3.24A144.49,144.49,0,0,0,275.73,78.86a1.71,1.71,0,0,1,3-1.68A148.29,148.29,0,0,1,254.52,254.52ZM24.27,221.14a1.7,1.7,0,0,1-.65,2.32,1.67,1.67,0,0,1-.84.22,1.7,1.7,0,0,1-1.48-.86A147.87,147.87,0,0,1,222.79,21.32c1.71.94,3.54,2,5.59,3.31a150.55,150.55,0,0,1,26.14,20.85c.79.79,1.6,1.63,2.44,2.51V31.62a1.71,1.71,0,1,1,3.41,0V52.06a1.71,1.71,0,0,1-1.71,1.71H238.22a1.71,1.71,0,0,1,0-3.41h16.29c-.83-.87-1.63-1.69-2.4-2.47a146.74,146.74,0,0,0-25.55-20.37c-2-1.25-3.76-2.31-5.43-3.22A144.46,144.46,0,0,0,24.27,221.14Z" transform="translate(-2.25 -2.25)"/></svg>