<svg xmlns="http://www.w3.org/2000/svg" xmlns:xlink="http://www.w3.org/1999/xlink" preserveAspectRatio="xMidYMid meet" width="1920" height="1920" viewBox="0 0 1920 1920" style="width:100%;height:100%"><defs><animateMotion repeatCount="indefinite" dur="3s" begin="0s" xlink:href="#_R_G_L_1_G_L_1_G_N_2_T_0" fill="freeze" keyTimes="0;0.0555556;0.1111111;0.2222222;0.3611111;0.4166667;0.4444444;0.5555556;0.6111111;0.6944444;0.8333333;0.8888889;0.9583333;0.9861111;1" path="M2.53 -41.25 C2.53,-43.67 2.53,-85.05 2.53,-109.71 C2.53,-129.15 2.53,-124.63 2.53,-140.47 C2.53,-162.16 2.53,-144.48 2.53,-158.03 C2.53,-161.42 2.53,-109.63 2.53,-83.03 C2.53,-67.97 2.53,-60.89 2.53,-63.53 C2.53,-63.76 2.53,-72 2.53,-72.25 C2.53,-113.76 -11.47,-227.82 -11.47,-309.29 C-11.47,-348.18 2.53,-379.65 2.53,-392.25 C2.53,-408.04 2.53,-386.48 2.53,-365.74 C2.53,-335.27 2.53,-297.32 2.53,-306.25 C2.53,-309.36 2.53,-294 2.53,-318.44 C2.53,-350.72 2.53,-378.75 2.53,-410.63 C2.53,-421.58 2.53,-461.21 2.53,-463.25 C2.53,-463.25 2.53,-463.25 2.53,-463.25 " keyPoints="0;0.09;0.12;0.15;0.24;0.26;0.28;0.57;0.68;0.72;0.8;0.82;0.93;1;1" keySplines="0.256 0 0.597 1;0.302 0 0.639 1;0.204 0 0.647 1;0.331 0 0.674 1;0.343 0 0.678 1;0.342 0 0.676 1;0.333 0 0.667 1;0.333 0.093 0.667 1;0.333 0 0.667 1;0.333 0 0.667 1;0.333 0 0.786 1;0.333 0 0.667 1;0.333 0 0.667 1;0 0 0 0" calcMode="spline"/><animateTransform repeatCount="indefinite" dur="3s" begin="0s" xlink:href="#_R_G_L_1_G_L_1_G_N_2_T_0" fill="freeze" attributeName="transform" from="342.5 37.5" to="342.5 37.5" type="translate" additive="sum" keyTimes="0;1" values="342.5 37.5;342.5 37.5" keySplines="0 0 1 1" calcMode="spline"/><animateMotion repeatCount="indefinite" dur="3s" begin="0s" xlink:href="#_R_G_L_1_G_L_1_G_N_2_N_1_T_0" fill="freeze" keyTimes="0;0.9861111;1" path="M740 1450 C894.67,1450 1513.33,1450 1668,1450 C1668,1450 1668,1450 1668,1450 " keyPoints="0;1;1" keySplines="0.167 0.167 0.833 0.833;0 0 0 0" calcMode="spline"/><animateMotion repeatCount="indefinite" dur="3s" begin="0s" xlink:href="#_R_G_L_1_G_L_0_G" fill="freeze" keyTimes="0;0.0555556;0.1111111;0.2222222;0.3611111;0.4166667;0.4444444;0.5555556;0.6111111;0.6944444;0.8333333;0.8888889;0.9583333;0.9861111;1" path="M2.53 -41.25 C2.53,-43.67 2.53,-85.05 2.53,-109.71 C2.53,-129.15 2.53,-124.63 2.53,-140.47 C2.53,-162.16 2.53,-144.48 2.53,-158.03 C2.53,-161.42 2.53,-109.63 2.53,-83.03 C2.53,-67.97 2.53,-60.89 2.53,-63.53 C2.53,-63.76 2.53,-72 2.53,-72.25 C2.53,-113.76 -11.47,-227.82 -11.47,-309.29 C-11.47,-348.18 2.53,-379.65 2.53,-392.25 C2.53,-408.04 2.53,-386.48 2.53,-365.74 C2.53,-335.27 2.53,-297.32 2.53,-306.25 C2.53,-309.36 2.53,-294 2.53,-318.44 C2.53,-350.72 2.53,-378.75 2.53,-410.63 C2.53,-421.58 2.53,-461.21 2.53,-463.25 C2.53,-463.25 2.53,-463.25 2.53,-463.25 " keyPoints="0;0.09;0.12;0.15;0.24;0.26;0.28;0.57;0.68;0.72;0.8;0.82;0.93;1;1" keySplines="0.256 0 0.597 1;0.302 0 0.639 1;0.204 0 0.647 1;0.331 0 0.674 1;0.343 0 0.678 1;0.342 0 0.676 1;0.333 0 0.667 1;0.333 0.093 0.667 1;0.333 0 0.667 1;0.333 0 0.667 1;0.333 0 0.786 1;0.333 0 0.667 1;0.333 0 0.667 1;0 0 0 0" calcMode="spline"/><animateTransform repeatCount="indefinite" dur="3s" begin="0s" xlink:href="#_R_G_L_1_G_L_0_G" fill="freeze" attributeName="transform" from="342.5 37.5" to="342.5 37.5" type="translate" additive="sum" keyTimes="0;1" values="342.5 37.5;342.5 37.5" keySplines="0 0 1 1" calcMode="spline"/><animateMotion repeatCount="indefinite" dur="3s" begin="0s" xlink:href="#_R_G_L_1_G_L_0_G_N_1_T_0" fill="freeze" keyTimes="0;0.9861111;1" path="M740 1450 C894.67,1450 1513.33,1450 1668,1450 C1668,1450 1668,1450 1668,1450 " keyPoints="0;1;1" keySplines="0.167 0.167 0.833 0.833;0 0 0 0" calcMode="spline"/><animateMotion repeatCount="indefinite" dur="3s" begin="0s" xlink:href="#_R_G_L_1_G" fill="freeze" keyTimes="0;0.3333333;0.4861111;0.6111111;0.75;0.9861111;1" path="M1264 960 C1246.33,960 1209,960 1158,960 C1107,960 1021,960 958,960 C895,960 842,960 780,960 C718,960 735.33,850.83 586,960 C436.67,1069.17 1,1505.83 -116,1615 C-116,1615 -116,1615 -116,1615 " keyPoints="0;0.06;0.18;0.29;0.42;1;1" keySplines="0.167 0 0.833 1;0.167 0 0.833 1;0.167 0 0.833 1;0.167 0 0.833 1;0.167 0 0.833 1;0 0 0 0" calcMode="spline"/><animateTransform repeatCount="indefinite" dur="3s" begin="0s" xlink:href="#_R_G_L_1_G" fill="freeze" attributeName="transform" from="2.46 2.46" to="2.46 2.46" type="scale" additive="sum" keyTimes="0;1" values="2.46 2.46;2.46 2.46" keySplines="0 0 1 1" calcMode="spline"/><animateTransform repeatCount="indefinite" dur="3s" begin="0s" xlink:href="#_R_G_L_1_G" fill="freeze" attributeName="transform" from="-1200 -1200" to="-1200 -1200" type="translate" additive="sum" keyTimes="0;1" values="-1200 -1200;-1200 -1200" keySplines="0 0 1 1" calcMode="spline"/><animate attributeType="XML" attributeName="opacity" dur="3s" from="0" to="1" xlink:href="#time_group"/></defs><g id="_R_G"><g id="_R_G_L_2_G" transform=" translate(960, 960) scale(1.88, 1.88) translate(0, 0)"/><g id="_R_G_L_1_G"><g id="_R_G_L_1_G_L_14_G" transform=" translate(1200, 1200) rotate(90) translate(-960, -960)"><g id="_R_G_L_1_G_L_14_G_L_5_G" opacity="0.05" transform=" translate(1437.201, 1196) translate(-2, -236)"><path id="_R_G_L_1_G_L_14_G_L_5_G_D_0_P_0" stroke="#151515" stroke-linecap="round" stroke-linejoin="round" fill="none" stroke-width="7" stroke-opacity="1" d=" M2 -478 C2,-478 2,486 2,486 "/></g><g id="_R_G_L_1_G_L_14_G_L_4_G" opacity="0.05" transform=" translate(1250.467, 1196) translate(-2, -236)"><path id="_R_G_L_1_G_L_14_G_L_4_G_D_0_P_0" stroke="#151515" stroke-linecap="round" stroke-linejoin="round" fill="none" stroke-width="7" stroke-opacity="1" d=" M2 -478 C2,-478 2,486 2,486 "/></g><g id="_R_G_L_1_G_L_14_G_L_3_G" opacity="0.05" transform=" translate(1063.734, 1196) translate(-2, -236)"><path id="_R_G_L_1_G_L_14_G_L_3_G_D_0_P_0" stroke="#151515" stroke-linecap="round" stroke-linejoin="round" fill="none" stroke-width="7" stroke-opacity="1" d=" M2 -478 C2,-478 2,486 2,486 "/></g><g id="_R_G_L_1_G_L_14_G_L_2_G" opacity="0.05" transform=" translate(877.001, 1196) translate(-2, -236)"><path id="_R_G_L_1_G_L_14_G_L_2_G_D_0_P_0" stroke="#151515" stroke-linecap="round" stroke-linejoin="round" fill="none" stroke-width="7" stroke-opacity="1" d=" M2 -478 C2,-478 2,486 2,486 "/></g><g id="_R_G_L_1_G_L_14_G_L_1_G" opacity="0.05" transform=" translate(690.267, 1196) translate(-2, -236)"><path id="_R_G_L_1_G_L_14_G_L_1_G_D_0_P_0" stroke="#151515" stroke-linecap="round" stroke-linejoin="round" fill="none" stroke-width="7" stroke-opacity="1" d=" M2 -478 C2,-478 2,486 2,486 "/></g><g id="_R_G_L_1_G_L_14_G_L_0_G" opacity="0.05" transform=" translate(503.534, 1196) translate(-2, -236)"><path id="_R_G_L_1_G_L_14_G_L_0_G_D_0_P_0" stroke="#151515" stroke-linecap="round" stroke-linejoin="round" fill="none" stroke-width="7" stroke-opacity="1" d=" M2 -478 C2,-478 2,486 2,486 "/></g></g><g id="_R_G_L_1_G_L_13_G" transform=" translate(1200, 1200) translate(-960, -960)"><g id="_R_G_L_1_G_L_13_G_L_5_G" opacity="0.05" transform=" translate(1437.201, 1196) translate(-2, -236)"><path id="_R_G_L_1_G_L_13_G_L_5_G_D_0_P_0" stroke="#151515" stroke-linecap="round" stroke-linejoin="round" fill="none" stroke-width="7" stroke-opacity="1" d=" M2 -478 C2,-478 2,486 2,486 "/></g><g id="_R_G_L_1_G_L_13_G_L_4_G" opacity="0.05" transform=" translate(1250.467, 1196) translate(-2, -236)"><path id="_R_G_L_1_G_L_13_G_L_4_G_D_0_P_0" stroke="#151515" stroke-linecap="round" stroke-linejoin="round" fill="none" stroke-width="7" stroke-opacity="1" d=" M2 -478 C2,-478 2,486 2,486 "/></g><g id="_R_G_L_1_G_L_13_G_L_3_G" opacity="0.05" transform=" translate(1063.734, 1196) translate(-2, -236)"><path id="_R_G_L_1_G_L_13_G_L_3_G_D_0_P_0" stroke="#151515" stroke-linecap="round" stroke-linejoin="round" fill="none" stroke-width="7" stroke-opacity="1" d=" M2 -478 C2,-478 2,486 2,486 "/></g><g id="_R_G_L_1_G_L_13_G_L_2_G" opacity="0.05" transform=" translate(877.001, 1196) translate(-2, -236)"><path id="_R_G_L_1_G_L_13_G_L_2_G_D_0_P_0" stroke="#151515" stroke-linecap="round" stroke-linejoin="round" fill="none" stroke-width="7" stroke-opacity="1" d=" M2 -478 C2,-478 2,486 2,486 "/></g><g id="_R_G_L_1_G_L_13_G_L_1_G" opacity="0.05" transform=" translate(690.267, 1196) translate(-2, -236)"><path id="_R_G_L_1_G_L_13_G_L_1_G_D_0_P_0" stroke="#151515" stroke-linecap="round" stroke-linejoin="round" fill="none" stroke-width="7" stroke-opacity="1" d=" M2 -478 C2,-478 2,486 2,486 "/></g><g id="_R_G_L_1_G_L_13_G_L_0_G" opacity="0.05" transform=" translate(503.534, 1196) translate(-2, -236)"><path id="_R_G_L_1_G_L_13_G_L_0_G_D_0_P_0" stroke="#151515" stroke-linecap="round" stroke-linejoin="round" fill="none" stroke-width="7" stroke-opacity="1" d=" M2 -478 C2,-478 2,486 2,486 "/></g></g><g id="_R_G_L_1_G_L_12_G" transform=" translate(2136, 1200) rotate(90) translate(-960, -960)"><g id="_R_G_L_1_G_L_12_G_L_5_G" opacity="0.05" transform=" translate(1437.201, 1196) translate(-2, -236)"><path id="_R_G_L_1_G_L_12_G_L_5_G_D_0_P_0" stroke="#151515" stroke-linecap="round" stroke-linejoin="round" fill="none" stroke-width="7" stroke-opacity="1" d=" M2 -478 C2,-478 2,486 2,486 "/></g><g id="_R_G_L_1_G_L_12_G_L_4_G" opacity="0.05" transform=" translate(1250.467, 1196) translate(-2, -236)"><path id="_R_G_L_1_G_L_12_G_L_4_G_D_0_P_0" stroke="#151515" stroke-linecap="round" stroke-linejoin="round" fill="none" stroke-width="7" stroke-opacity="1" d=" M2 -478 C2,-478 2,486 2,486 "/></g><g id="_R_G_L_1_G_L_12_G_L_3_G" opacity="0.05" transform=" translate(1063.734, 1196) translate(-2, -236)"><path id="_R_G_L_1_G_L_12_G_L_3_G_D_0_P_0" stroke="#151515" stroke-linecap="round" stroke-linejoin="round" fill="none" stroke-width="7" stroke-opacity="1" d=" M2 -478 C2,-478 2,486 2,486 "/></g><g id="_R_G_L_1_G_L_12_G_L_2_G" opacity="0.05" transform=" translate(877.001, 1196) translate(-2, -236)"><path id="_R_G_L_1_G_L_12_G_L_2_G_D_0_P_0" stroke="#151515" stroke-linecap="round" stroke-linejoin="round" fill="none" stroke-width="7" stroke-opacity="1" d=" M2 -478 C2,-478 2,486 2,486 "/></g><g id="_R_G_L_1_G_L_12_G_L_1_G" opacity="0.05" transform=" translate(690.267, 1196) translate(-2, -236)"><path id="_R_G_L_1_G_L_12_G_L_1_G_D_0_P_0" stroke="#151515" stroke-linecap="round" stroke-linejoin="round" fill="none" stroke-width="7" stroke-opacity="1" d=" M2 -478 C2,-478 2,486 2,486 "/></g><g id="_R_G_L_1_G_L_12_G_L_0_G" opacity="0.05" transform=" translate(503.534, 1196) translate(-2, -236)"><path id="_R_G_L_1_G_L_12_G_L_0_G_D_0_P_0" stroke="#151515" stroke-linecap="round" stroke-linejoin="round" fill="none" stroke-width="7" stroke-opacity="1" d=" M2 -478 C2,-478 2,486 2,486 "/></g></g><g id="_R_G_L_1_G_L_11_G" transform=" translate(2136, 1200) translate(-960, -960)"><g id="_R_G_L_1_G_L_11_G_L_5_G" opacity="0.05" transform=" translate(1437.201, 1196) translate(-2, -236)"><path id="_R_G_L_1_G_L_11_G_L_5_G_D_0_P_0" stroke="#151515" stroke-linecap="round" stroke-linejoin="round" fill="none" stroke-width="7" stroke-opacity="1" d=" M2 -478 C2,-478 2,486 2,486 "/></g><g id="_R_G_L_1_G_L_11_G_L_4_G" opacity="0.05" transform=" translate(1250.467, 1196) translate(-2, -236)"><path id="_R_G_L_1_G_L_11_G_L_4_G_D_0_P_0" stroke="#151515" stroke-linecap="round" stroke-linejoin="round" fill="none" stroke-width="7" stroke-opacity="1" d=" M2 -478 C2,-478 2,486 2,486 "/></g><g id="_R_G_L_1_G_L_11_G_L_3_G" opacity="0.05" transform=" translate(1063.734, 1196) translate(-2, -236)"><path id="_R_G_L_1_G_L_11_G_L_3_G_D_0_P_0" stroke="#151515" stroke-linecap="round" stroke-linejoin="round" fill="none" stroke-width="7" stroke-opacity="1" d=" M2 -478 C2,-478 2,486 2,486 "/></g><g id="_R_G_L_1_G_L_11_G_L_2_G" opacity="0.05" transform=" translate(877.001, 1196) translate(-2, -236)"><path id="_R_G_L_1_G_L_11_G_L_2_G_D_0_P_0" stroke="#151515" stroke-linecap="round" stroke-linejoin="round" fill="none" stroke-width="7" stroke-opacity="1" d=" M2 -478 C2,-478 2,486 2,486 "/></g><g id="_R_G_L_1_G_L_11_G_L_1_G" opacity="0.05" transform=" translate(690.267, 1196) translate(-2, -236)"><path id="_R_G_L_1_G_L_11_G_L_1_G_D_0_P_0" stroke="#151515" stroke-linecap="round" stroke-linejoin="round" fill="none" stroke-width="7" stroke-opacity="1" d=" M2 -478 C2,-478 2,486 2,486 "/></g><g id="_R_G_L_1_G_L_11_G_L_0_G" opacity="0.05" transform=" translate(503.534, 1196) translate(-2, -236)"><path id="_R_G_L_1_G_L_11_G_L_0_G_D_0_P_0" stroke="#151515" stroke-linecap="round" stroke-linejoin="round" fill="none" stroke-width="7" stroke-opacity="1" d=" M2 -478 C2,-478 2,486 2,486 "/></g></g><g id="_R_G_L_1_G_L_10_G" transform=" translate(1200, 268) rotate(90) translate(-960, -960)"><g id="_R_G_L_1_G_L_10_G_L_5_G" opacity="0.05" transform=" translate(1437.201, 1196) translate(-2, -236)"><path id="_R_G_L_1_G_L_10_G_L_5_G_D_0_P_0" stroke="#151515" stroke-linecap="round" stroke-linejoin="round" fill="none" stroke-width="7" stroke-opacity="1" d=" M2 -478 C2,-478 2,486 2,486 "/></g><g id="_R_G_L_1_G_L_10_G_L_4_G" opacity="0.05" transform=" translate(1250.467, 1196) translate(-2, -236)"><path id="_R_G_L_1_G_L_10_G_L_4_G_D_0_P_0" stroke="#151515" stroke-linecap="round" stroke-linejoin="round" fill="none" stroke-width="7" stroke-opacity="1" d=" M2 -478 C2,-478 2,486 2,486 "/></g><g id="_R_G_L_1_G_L_10_G_L_3_G" opacity="0.05" transform=" translate(1063.734, 1196) translate(-2, -236)"><path id="_R_G_L_1_G_L_10_G_L_3_G_D_0_P_0" stroke="#151515" stroke-linecap="round" stroke-linejoin="round" fill="none" stroke-width="7" stroke-opacity="1" d=" M2 -478 C2,-478 2,486 2,486 "/></g><g id="_R_G_L_1_G_L_10_G_L_2_G" opacity="0.05" transform=" translate(877.001, 1196) translate(-2, -236)"><path id="_R_G_L_1_G_L_10_G_L_2_G_D_0_P_0" stroke="#151515" stroke-linecap="round" stroke-linejoin="round" fill="none" stroke-width="7" stroke-opacity="1" d=" M2 -478 C2,-478 2,486 2,486 "/></g><g id="_R_G_L_1_G_L_10_G_L_1_G" opacity="0.05" transform=" translate(690.267, 1196) translate(-2, -236)"><path id="_R_G_L_1_G_L_10_G_L_1_G_D_0_P_0" stroke="#151515" stroke-linecap="round" stroke-linejoin="round" fill="none" stroke-width="7" stroke-opacity="1" d=" M2 -478 C2,-478 2,486 2,486 "/></g><g id="_R_G_L_1_G_L_10_G_L_0_G" opacity="0.05" transform=" translate(503.534, 1196) translate(-2, -236)"><path id="_R_G_L_1_G_L_10_G_L_0_G_D_0_P_0" stroke="#151515" stroke-linecap="round" stroke-linejoin="round" fill="none" stroke-width="7" stroke-opacity="1" d=" M2 -478 C2,-478 2,486 2,486 "/></g></g><g id="_R_G_L_1_G_L_9_G" transform=" translate(1200, 268) translate(-960, -960)"><g id="_R_G_L_1_G_L_9_G_L_5_G" opacity="0.05" transform=" translate(1437.201, 1196) translate(-2, -236)"><path id="_R_G_L_1_G_L_9_G_L_5_G_D_0_P_0" stroke="#151515" stroke-linecap="round" stroke-linejoin="round" fill="none" stroke-width="7" stroke-opacity="1" d=" M2 -478 C2,-478 2,486 2,486 "/></g><g id="_R_G_L_1_G_L_9_G_L_4_G" opacity="0.05" transform=" translate(1250.467, 1196) translate(-2, -236)"><path id="_R_G_L_1_G_L_9_G_L_4_G_D_0_P_0" stroke="#151515" stroke-linecap="round" stroke-linejoin="round" fill="none" stroke-width="7" stroke-opacity="1" d=" M2 -478 C2,-478 2,486 2,486 "/></g><g id="_R_G_L_1_G_L_9_G_L_3_G" opacity="0.05" transform=" translate(1063.734, 1196) translate(-2, -236)"><path id="_R_G_L_1_G_L_9_G_L_3_G_D_0_P_0" stroke="#151515" stroke-linecap="round" stroke-linejoin="round" fill="none" stroke-width="7" stroke-opacity="1" d=" M2 -478 C2,-478 2,486 2,486 "/></g><g id="_R_G_L_1_G_L_9_G_L_2_G" opacity="0.05" transform=" translate(877.001, 1196) translate(-2, -236)"><path id="_R_G_L_1_G_L_9_G_L_2_G_D_0_P_0" stroke="#151515" stroke-linecap="round" stroke-linejoin="round" fill="none" stroke-width="7" stroke-opacity="1" d=" M2 -478 C2,-478 2,486 2,486 "/></g><g id="_R_G_L_1_G_L_9_G_L_1_G" opacity="0.05" transform=" translate(690.267, 1196) translate(-2, -236)"><path id="_R_G_L_1_G_L_9_G_L_1_G_D_0_P_0" stroke="#151515" stroke-linecap="round" stroke-linejoin="round" fill="none" stroke-width="7" stroke-opacity="1" d=" M2 -478 C2,-478 2,486 2,486 "/></g><g id="_R_G_L_1_G_L_9_G_L_0_G" opacity="0.05" transform=" translate(503.534, 1196) translate(-2, -236)"><path id="_R_G_L_1_G_L_9_G_L_0_G_D_0_P_0" stroke="#151515" stroke-linecap="round" stroke-linejoin="round" fill="none" stroke-width="7" stroke-opacity="1" d=" M2 -478 C2,-478 2,486 2,486 "/></g></g><g id="_R_G_L_1_G_L_8_G" transform=" translate(2136, 268) rotate(90) translate(-960, -960)"><g id="_R_G_L_1_G_L_8_G_L_5_G" opacity="0.05" transform=" translate(1437.201, 1196) translate(-2, -236)"><path id="_R_G_L_1_G_L_8_G_L_5_G_D_0_P_0" stroke="#151515" stroke-linecap="round" stroke-linejoin="round" fill="none" stroke-width="7" stroke-opacity="1" d=" M2 -478 C2,-478 2,486 2,486 "/></g><g id="_R_G_L_1_G_L_8_G_L_4_G" opacity="0.05" transform=" translate(1250.467, 1196) translate(-2, -236)"><path id="_R_G_L_1_G_L_8_G_L_4_G_D_0_P_0" stroke="#151515" stroke-linecap="round" stroke-linejoin="round" fill="none" stroke-width="7" stroke-opacity="1" d=" M2 -478 C2,-478 2,486 2,486 "/></g><g id="_R_G_L_1_G_L_8_G_L_3_G" opacity="0.05" transform=" translate(1063.734, 1196) translate(-2, -236)"><path id="_R_G_L_1_G_L_8_G_L_3_G_D_0_P_0" stroke="#151515" stroke-linecap="round" stroke-linejoin="round" fill="none" stroke-width="7" stroke-opacity="1" d=" M2 -478 C2,-478 2,486 2,486 "/></g><g id="_R_G_L_1_G_L_8_G_L_2_G" opacity="0.05" transform=" translate(877.001, 1196) translate(-2, -236)"><path id="_R_G_L_1_G_L_8_G_L_2_G_D_0_P_0" stroke="#151515" stroke-linecap="round" stroke-linejoin="round" fill="none" stroke-width="7" stroke-opacity="1" d=" M2 -478 C2,-478 2,486 2,486 "/></g><g id="_R_G_L_1_G_L_8_G_L_1_G" opacity="0.05" transform=" translate(690.267, 1196) translate(-2, -236)"><path id="_R_G_L_1_G_L_8_G_L_1_G_D_0_P_0" stroke="#151515" stroke-linecap="round" stroke-linejoin="round" fill="none" stroke-width="7" stroke-opacity="1" d=" M2 -478 C2,-478 2,486 2,486 "/></g><g id="_R_G_L_1_G_L_8_G_L_0_G" opacity="0.05" transform=" translate(503.534, 1196) translate(-2, -236)"><path id="_R_G_L_1_G_L_8_G_L_0_G_D_0_P_0" stroke="#151515" stroke-linecap="round" stroke-linejoin="round" fill="none" stroke-width="7" stroke-opacity="1" d=" M2 -478 C2,-478 2,486 2,486 "/></g></g><g id="_R_G_L_1_G_L_7_G" transform=" translate(2136, 268) translate(-960, -960)"><g id="_R_G_L_1_G_L_7_G_L_5_G" opacity="0.05" transform=" translate(1437.201, 1196) translate(-2, -236)"><path id="_R_G_L_1_G_L_7_G_L_5_G_D_0_P_0" stroke="#151515" stroke-linecap="round" stroke-linejoin="round" fill="none" stroke-width="7" stroke-opacity="1" d=" M2 -478 C2,-478 2,486 2,486 "/></g><g id="_R_G_L_1_G_L_7_G_L_4_G" opacity="0.05" transform=" translate(1250.467, 1196) translate(-2, -236)"><path id="_R_G_L_1_G_L_7_G_L_4_G_D_0_P_0" stroke="#151515" stroke-linecap="round" stroke-linejoin="round" fill="none" stroke-width="7" stroke-opacity="1" d=" M2 -478 C2,-478 2,486 2,486 "/></g><g id="_R_G_L_1_G_L_7_G_L_3_G" opacity="0.05" transform=" translate(1063.734, 1196) translate(-2, -236)"><path id="_R_G_L_1_G_L_7_G_L_3_G_D_0_P_0" stroke="#151515" stroke-linecap="round" stroke-linejoin="round" fill="none" stroke-width="7" stroke-opacity="1" d=" M2 -478 C2,-478 2,486 2,486 "/></g><g id="_R_G_L_1_G_L_7_G_L_2_G" opacity="0.05" transform=" translate(877.001, 1196) translate(-2, -236)"><path id="_R_G_L_1_G_L_7_G_L_2_G_D_0_P_0" stroke="#151515" stroke-linecap="round" stroke-linejoin="round" fill="none" stroke-width="7" stroke-opacity="1" d=" M2 -478 C2,-478 2,486 2,486 "/></g><g id="_R_G_L_1_G_L_7_G_L_1_G" opacity="0.05" transform=" translate(690.267, 1196) translate(-2, -236)"><path id="_R_G_L_1_G_L_7_G_L_1_G_D_0_P_0" stroke="#151515" stroke-linecap="round" stroke-linejoin="round" fill="none" stroke-width="7" stroke-opacity="1" d=" M2 -478 C2,-478 2,486 2,486 "/></g><g id="_R_G_L_1_G_L_7_G_L_0_G" opacity="0.05" transform=" translate(503.534, 1196) translate(-2, -236)"><path id="_R_G_L_1_G_L_7_G_L_0_G_D_0_P_0" stroke="#151515" stroke-linecap="round" stroke-linejoin="round" fill="none" stroke-width="7" stroke-opacity="1" d=" M2 -478 C2,-478 2,486 2,486 "/></g></g><g id="_R_G_L_1_G_L_6_G" transform=" translate(1200, 1200) translate(0, 0)"/><g id="_R_G_L_1_G_L_5_G" opacity="0.2" transform=" translate(2152, 744.25) scale(1.00158, 0.9941) translate(0, 0)"><path id="_R_G_L_1_G_L_5_G_D_0_P_0" stroke="#ff8e4e" stroke-linecap="round" stroke-linejoin="round" fill="none" stroke-width="8" stroke-opacity="1" d=" M-474 233 C-414,134 -355.21,91 -272,91 C-166,91 -130.88,190 -67,190 C50,190 6,-141 120,-141 C195.33,-141 249,-55 329,-55 C404.76,-55 474,-230 474,-230 "/></g><g id="_R_G_L_1_G_L_4_G" opacity="0.2" transform=" translate(1204, 1206) translate(0, 0)"><path id="_R_G_L_1_G_L_4_G_D_0_P_0" stroke="#ff8e4e" stroke-linecap="round" stroke-linejoin="round" fill="none" stroke-width="8" stroke-opacity="1" d=" M-474 233 C-414,134 -355.21,91 -272,91 C-166,91 -130.88,190 -67,190 C50,190 6,-141 120,-141 C195.33,-141 249,-55 329,-55 C404.76,-55 474,-230 474,-230 "/></g><g id="_R_G_L_1_G_L_3_G" transform=" translate(1200, 1200) translate(0, 0)"><path id="_R_G_L_1_G_L_3_G_D_0_P_0" stroke="#ff8e4e" stroke-linecap="round" stroke-linejoin="round" fill="none" stroke-width="8" stroke-opacity="1" d=" M-474 233 C-414,134 -355.21,91 -272,91 C-166,91 -130.88,190 -67,190 C50,190 6,-141 120,-141 C195.33,-141 249,-55 329,-55 C404.76,-55 474,-230 474,-230 "/></g><g id="_R_G_L_1_G_L_2_G" transform=" translate(2148, 738.25) scale(1.00633, 1.01824) translate(0, 0)"><path id="_R_G_L_1_G_L_2_G_D_0_P_0" stroke="#ff8e4e" stroke-linecap="round" stroke-linejoin="round" fill="none" stroke-width="8" stroke-opacity="1" d=" M-474 233 C-414,134 -355.21,91 -272,91 C-166,91 -130.88,190 -67,190 C50,190 6,-141 120,-141 C195.33,-141 249,-55 329,-55 C404.76,-55 474,-230 474,-230 "/></g><g id="_R_G_L_1_G_L_1_G_N_2_N_1_T_0"><g id="_R_G_L_1_G_L_1_G_N_2_T_0"><g id="_R_G_L_1_G_L_1_G" transform=" scale(1.21, 1.21)"/></g></g><g id="_R_G_L_1_G_L_0_G_N_1_T_0"><g id="_R_G_L_1_G_L_0_G"><path id="_R_G_L_1_G_L_0_G_D_0_P_0" fill="#ff8e4e" fill-opacity="1" fill-rule="nonzero" d=" M-342.5 -60 C-330.08,-60 -320,-49.92 -320,-37.5 C-320,-25.08 -330.08,-15 -342.5,-15 C-354.92,-15 -365,-25.08 -365,-37.5 C-365,-49.92 -354.92,-60 -342.5,-60z "/></g></g></g><g id="_R_G_L_0_G" transform=" translate(960, 960) scale(1.88, 1.88) translate(0, 0)"/></g><g id="time_group"/></svg>