<svg xmlns="http://www.w3.org/2000/svg" xmlns:xlink="http://www.w3.org/1999/xlink" viewBox="0 0 180.66 193.69"><defs><style>.cls-1{fill:#59251b;}.cls-1,.cls-2,.cls-3,.cls-4,.cls-5{fill-rule:evenodd;}.cls-2{fill:#fffcf5;}.cls-3{fill:#f1e3d6;}.cls-11,.cls-21,.cls-4{fill:#fff;}.cls-5{fill:#ff8884;}.cls-16,.cls-6{fill:#ff4343;}.cls-10,.cls-11,.cls-12,.cls-13,.cls-14,.cls-15,.cls-16,.cls-17,.cls-22,.cls-6,.cls-7,.cls-8,.cls-9{stroke:#572319;}.cls-10,.cls-11,.cls-12,.cls-13,.cls-14,.cls-15,.cls-6,.cls-7,.cls-8,.cls-9{stroke-linecap:round;stroke-linejoin:round;stroke-width:9px;}.cls-17,.cls-7{fill:none;}.cls-23,.cls-27,.cls-8{opacity:0.05;}.cls-18,.cls-9{opacity:0.1;}.cls-10,.cls-19{opacity:0.15;}.cls-12,.cls-22{fill:#7d5d53;}.cls-13,.cls-24{fill:#572319;}.cls-14,.cls-25{fill:#fcd73d;}.cls-15,.cls-26{fill:#4946d1;}.cls-16,.cls-17,.cls-22{stroke-miterlimit:10;}.cls-20{opacity:0.2;}.cls-27{fill:url(#linear-gradient);}</style><linearGradient id="linear-gradient" x1="40.1" y1="100.37" x2="140.38" y2="100.37" gradientUnits="userSpaceOnUse"><stop offset="0" stop-color="#fff"/><stop offset="1"/></linearGradient></defs><g id="Layer_2" data-name="Layer 2"><g id="File_1" data-name="File 1"><g id="Layer_4" data-name="Layer 4"><g id="Happy"><path class="cls-1" d="M127.17,61.55c26.5,12.33,43.94,33.85,46.61,63.83,1.14,12.72-1.53,25.05-8.68,35.72C149.31,184.68,117,193.69,90,193.69s-59.27-9-75.07-32.59c-7.14-10.67-9.81-23-8.67-35.72C9,95.4,26.4,73.88,52.9,61.55A18.25,18.25,0,0,1,75.81,44.62a18.26,18.26,0,0,1,28.45,0,18.25,18.25,0,0,1,22.91,16.93Z"/><path class="cls-2" d="M122.13,61.51A13.21,13.21,0,0,0,102.2,50.89c-2.27,1.22-5.7,5.58-6.83,8.67a19.58,19.58,0,0,1,5.09-11.62,13.21,13.21,0,0,0-22.59,3c-1.06,2.35-1.14,7.9-.16,11a19.64,19.64,0,0,1-3-12.4A13.21,13.21,0,0,0,57.92,62.25a13.43,13.43,0,0,0,.23,2.47h0c.62,2.5,4,6.91,6.7,8.77a19.4,19.4,0,0,1-9.71-7.43C30,77.7,13.8,97.77,11.3,125.83c-7.48,83.77,165,83.77,157.47,0-2.6-29.17-20-49.71-46.85-61.11-2.18-1.38-7.66-2.24-10.91-1.7A19,19,0,0,1,122.13,61.51Z"/><path class="cls-3" d="M64.85,73.49a19.4,19.4,0,0,1-9.71-7.43c-.91.42-1.8.85-2.69,1.3C55.37,70.83,59.68,72.86,64.85,73.49Z"/><path class="cls-3" d="M77.44,60.9c.08.36.17.71.27,1l-.27-1Zm.27,1C74.26,58,72.38,53.65,72.5,49.11a13.16,13.16,0,0,1,2.2.42A19.64,19.64,0,0,0,77.71,61.93Z"/><path class="cls-3" d="M95.49,59.25l-.12.31.12-.31Zm-.12.31c-.54-5.22.5-9.89,3.28-13.53a13.61,13.61,0,0,1,1.81,1.91A19.58,19.58,0,0,0,95.37,59.56Z"/><path class="cls-3" d="M122.13,61.51a14,14,0,0,0-.49-2.92A19.72,19.72,0,0,0,111,63,19,19,0,0,1,122.13,61.51Z"/><path class="cls-1" d="M90.06,135.3a13.89,13.89,0,0,1,2.22,0c.56.12.9.43.89.76s-.36.64-.92,1a5.81,5.81,0,0,1-2.22.73,5.75,5.75,0,0,1-2.22-.73c-.56-.31-.92-.61-.92-1s.37-.64,1-.75A15,15,0,0,1,90.06,135.3Z"/><path class="cls-1" d="M80.31,151.8c3.1-.46,6.37-2.37,9.72-4.85,3.35,2.48,6.63,4.39,9.73,4.85,6,.89,8.51-2.68,9.81-4-1.39,3.42-5.91,5.72-9.38,5.56l0,.1a6.46,6.46,0,0,1-3.59,4.14,15.21,15.21,0,0,1-13.09,0,6.5,6.5,0,0,1-3.6-4.14l0-.1c-3.46.16-8-2.14-9.37-5.56C71.8,149.12,74.26,152.69,80.31,151.8Z"/><path class="cls-1" d="M82.77,91.26c9.4-4,9.49-16.32,5.28-21.42C88.62,79.41,86.69,86.38,82.77,91.26Z"/><path class="cls-1" d="M92.58,72.8c2.25,8.94,6.43,11.44,11.66,10.5C95.33,77.17,95.35,75.72,92.58,72.8Z"/><path class="cls-1" d="M84.09,72.73c.66,5.5-4.9,11.77-9.25,11.21C78.55,81.89,81.45,77.26,84.09,72.73Z"/><path class="cls-1" d="M56.84,117.26a10.43,10.43,0,1,1-10.43,10.43A10.42,10.42,0,0,1,56.84,117.26Z"/><path class="cls-4" d="M59.87,119.14a4.8,4.8,0,1,1-4.8,4.79A4.79,4.79,0,0,1,59.87,119.14Z"/><path class="cls-5" d="M98.92,153.21c-.55,2.6-4.32,4.61-8.89,4.61s-8.33-2-8.89-4.61A24.42,24.42,0,0,0,90,148.85,24.5,24.5,0,0,0,98.92,153.21Z"/><path class="cls-3" d="M20.91,160.73c35.42,46.53,154.09,34.91,147.86-34.9a69.89,69.89,0,0,0-10.29-31.45c9.64,55.06-14.73,90.23-79.26,86.43C59.56,179.65,38.5,172.22,20.91,160.73Z"/><path class="cls-1" d="M123.23,117.26a10.43,10.43,0,1,0,10.43,10.43A10.43,10.43,0,0,0,123.23,117.26Z"/><path class="cls-4" d="M120.2,119.14a4.8,4.8,0,1,0,4.8,4.79A4.79,4.79,0,0,0,120.2,119.14Z"/></g><g id="Layer_2_copy_2" data-name="Layer 2 copy 2"><polygon class="cls-6" points="39.23 106.74 141.23 106.74 165.42 100.55 165.23 85.79 142.56 58.93 119.71 43.98 100.47 39.02 78.95 39.02 60.09 44.17 37.61 59.12 15.52 85.5 15.14 100.55 39.23 106.74"/><polyline class="cls-7" points="15.52 85.5 46.47 93.98 134.37 94.17 165.23 85.79"/><polyline class="cls-7" points="142.56 58.93 119.61 67.88 60.85 67.88 37.61 59.12"/><polyline class="cls-7" points="60.09 44.17 78.56 48.26 102.18 48.26 119.71 43.98"/><polyline class="cls-7" points="102.18 48.26 119.61 67.88 134.37 94.17 141.23 106.74"/><polyline class="cls-7" points="78.56 48.26 60.85 67.88 46.47 93.98 39.23 106.74"/><polygon class="cls-6" points="60.9 67.91 119.59 67.91 137.71 47.91 135.05 32.43 117.52 11.86 90.27 4.5 62.84 12.12 45.49 32.62 42.97 47.59 60.9 67.91"/><g id="Layer_6_copy" data-name="Layer 6 copy"><polygon class="cls-8" points="47.53 36.04 61.03 67.43 65.92 63.15 55.42 42.82 47.53 36.04"/><polyline class="cls-8" points="114.88 62.95 125.14 42.46 133.2 35.18 119.87 67.34 114.88 62.95"/><polygon class="cls-9" points="134.77 33.7 137.17 47.76 121.21 65.37 134.77 33.7"/><polygon class="cls-9" points="45.75 34.06 43.5 47.44 59.19 65.22 45.75 34.06"/><polygon class="cls-10" points="66.33 63.8 114.39 63.67 118.28 67.38 62.22 67.4 66.33 63.8"/></g><polygon class="cls-11" points="55.81 42.89 69.57 18.59 80.87 34.18 75.03 47.58 55.81 42.89"/><polyline class="cls-11" points="55.81 42.89 66.14 63.29 114.58 63.17 124.72 42.87 111.28 18.61 99.75 34.13"/><polyline class="cls-7" points="69.57 18.59 111.31 18.59 117.52 11.86"/><line class="cls-7" x1="66.14" y1="63.27" x2="114.61" y2="63.14"/><polyline class="cls-7" points="69.57 18.59 80.91 34.07 75.24 47.54 55.72 42.96 66.14 63.27 60.9 67.91 46.42 34.34 55.72 42.96 69.57 18.59 62.84 12.12"/><polyline class="cls-7" points="99.78 34.17 111.31 18.59 124.77 42.84 134.03 34.15 119.59 67.91 114.61 63.15 124.77 42.84"/><line class="cls-7" x1="105.24" y1="47.64" x2="124.77" y2="42.83"/><line class="cls-7" x1="99.73" y1="34.08" x2="105.24" y2="47.79"/><polygon class="cls-12" points="80.48 33.46 100.27 33.44 105.58 47.5 95.45 58.61 90.34 69.41 84.95 58.45 75.06 47.48 80.48 33.46"/><g id="Layer_5_copy" data-name="Layer 5 copy"><polyline class="cls-9" points="100.47 47.83 97.08 56.08 104.32 48.13 100.47 47.83"/><polyline class="cls-9" points="80.09 47.73 83.29 55.86 76.24 48.03 80.09 47.73"/><polygon class="cls-10" points="38.71 58.99 59.19 66.72 47.31 53.27 38.71 58.99"/><polygon class="cls-10" points="141.47 58.81 121.41 66.64 133.33 53.48 141.47 58.81"/><polygon class="cls-8" points="16.68 100.43 38.98 106.16 45.71 94.29 22.1 87.82 16.68 100.43"/><polygon class="cls-8" points="141.48 106.16 163.8 100.44 158.34 88.18 135.12 94.48 141.48 106.16"/><polygon class="cls-8" points="37.77 59.71 60.12 68.15 46.22 93.39 22.79 86.97 31.66 67.01 37.77 59.71"/><polygon class="cls-8" points="142.41 59.53 120.34 68.14 134.62 93.57 157.92 87.25 149.11 67.48 142.41 59.53"/></g><polyline class="cls-7" points="80.51 33.48 82.79 41.44 97.87 41.44 100.21 33.51"/><polyline class="cls-7" points="97.87 41.44 100.09 47.98 105.54 47.52"/><line class="cls-7" x1="100.09" y1="47.98" x2="95.07" y2="59.41"/><polyline class="cls-7" points="85.22 59.02 80.25 47.72 75.11 47.48"/><line class="cls-7" x1="80.25" y1="47.72" x2="82.79" y2="41.44"/><circle class="cls-13" cx="69.68" cy="33.67" r="2.55"/><circle class="cls-13" cx="109.68" cy="33.67" r="2.55"/><polygon class="cls-6" points="29.36 45.63 31.2 66.82 4.5 126.92 15.8 60.59 29.36 45.63"/><polyline class="cls-14" points="12.07 82.44 14.15 85.77 17.79 82.84 19.45 86.76 22.36 86.93 15.53 102.21 8.91 100.83 12.07 82.44"/><polygon class="cls-15" points="9.24 99.22 11.02 98.59 12.33 101.15 14.36 99.96 15.53 101.68 4.71 126.44 9.24 99.22"/><polygon class="cls-7" points="29.36 45.63 31.2 66.82 4.5 126.92 15.8 60.59 29.36 45.63"/><polygon class="cls-6" points="151.22 45.69 149.41 66.88 176.16 126.96 164.8 60.64 151.22 45.69"/><polyline class="cls-14" points="168.56 82.53 166.47 85.86 162.83 82.94 161.18 86.86 158.27 87.03 165.11 102.3 171.73 100.92 168.56 82.53"/><polygon class="cls-15" points="171.39 99.31 169.62 98.68 168.31 101.24 166.28 100.05 165.11 101.78 175.95 126.53 171.39 99.31"/><polygon class="cls-7" points="151.22 45.69 149.41 66.88 176.16 126.96 164.8 60.64 151.22 45.69"/><polygon class="cls-8" points="46.75 94.49 134.05 94.68 140.38 106.25 40.1 106.23 46.75 94.49"/></g><g id="Layer_2-2" data-name="Layer 2"><polygon class="cls-16" points="39.23 106.74 141.23 106.74 165.42 100.55 165.23 85.79 142.56 58.93 119.71 43.98 100.47 39.02 78.95 39.02 60.09 44.17 37.61 59.12 15.52 85.5 15.14 100.55 39.23 106.74"/><polyline class="cls-17" points="15.52 85.5 46.47 93.98 134.37 94.17 165.23 85.79"/><polyline class="cls-17" points="142.56 58.93 119.61 67.88 60.85 67.88 37.61 59.12"/><polyline class="cls-17" points="60.09 44.17 78.56 48.26 102.18 48.26 119.71 43.98"/><polyline class="cls-17" points="102.18 48.26 119.61 67.88 134.37 94.17 141.23 106.74"/><polyline class="cls-17" points="78.56 48.26 60.85 67.88 46.47 93.98 39.23 106.74"/><polygon class="cls-16" points="60.9 67.91 119.59 67.91 137.71 47.91 135.05 32.43 117.52 11.86 90.27 4.5 62.84 12.12 45.49 32.62 42.97 47.59 60.9 67.91"/><g id="Layer_6" data-name="Layer 6"><polygon class="cls-18" points="47.53 36.04 61.03 67.43 65.92 63.15 55.42 42.82 47.53 36.04"/><polyline class="cls-18" points="114.88 62.95 125.14 42.46 133.2 35.18 119.87 67.34 114.88 62.95"/><polygon class="cls-19" points="134.77 33.7 137.17 47.76 121.21 65.37 134.77 33.7"/><polygon class="cls-19" points="45.75 34.06 43.5 47.44 59.19 65.22 45.75 34.06"/><polygon class="cls-20" points="66.33 63.8 114.39 63.67 118.28 67.38 62.22 67.4 66.33 63.8"/></g><polygon class="cls-21" points="55.81 42.89 69.57 18.59 80.87 34.18 75.03 47.58 55.81 42.89"/><polyline class="cls-21" points="55.81 42.89 66.14 63.29 114.58 63.17 124.72 42.87 111.28 18.61 99.75 34.13"/><polyline class="cls-17" points="69.57 18.59 111.31 18.59 117.52 11.86"/><line class="cls-17" x1="66.14" y1="63.27" x2="114.61" y2="63.14"/><polyline class="cls-17" points="69.57 18.59 80.91 34.07 75.24 47.54 55.72 42.96 66.14 63.27 60.9 67.91 46.42 34.34 55.72 42.96 69.57 18.59 62.84 12.12"/><polyline class="cls-17" points="99.78 34.17 111.31 18.59 124.77 42.84 134.03 34.15 119.59 67.91 114.61 63.15 124.77 42.84"/><line class="cls-17" x1="105.24" y1="47.64" x2="124.77" y2="42.83"/><line class="cls-17" x1="99.73" y1="34.08" x2="105.24" y2="47.79"/><polygon class="cls-22" points="80.48 33.46 100.27 33.44 105.58 47.5 95.45 58.61 90.34 69.41 84.95 58.45 75.06 47.48 80.48 33.46"/><g id="Layer_5" data-name="Layer 5"><polyline class="cls-19" points="100.47 47.83 97.08 56.08 104.32 48.13 100.47 47.83"/><polyline class="cls-19" points="80.09 47.73 83.29 55.86 76.24 48.03 80.09 47.73"/><polygon class="cls-20" points="38.71 58.99 59.19 66.72 47.31 53.27 38.71 58.99"/><polygon class="cls-20" points="141.47 58.81 121.41 66.64 133.33 53.48 141.47 58.81"/><polygon class="cls-23" points="16.68 100.43 38.98 106.16 45.71 94.29 22.1 87.82 16.68 100.43"/><polygon class="cls-23" points="141.48 106.16 163.8 100.44 158.34 88.18 135.12 94.48 141.48 106.16"/><polygon class="cls-18" points="37.77 59.71 60.12 68.15 46.22 93.39 22.79 86.97 31.66 67.01 37.77 59.71"/><polygon class="cls-18" points="142.41 59.53 120.34 68.14 134.62 93.57 157.92 87.25 149.11 67.48 142.41 59.53"/></g><polyline class="cls-17" points="80.51 33.48 82.79 41.44 97.87 41.44 100.21 33.51"/><polyline class="cls-17" points="97.87 41.44 100.09 47.98 105.54 47.52"/><line class="cls-17" x1="100.09" y1="47.98" x2="95.07" y2="59.41"/><polyline class="cls-17" points="85.22 59.02 80.25 47.72 75.11 47.48"/><line class="cls-17" x1="80.25" y1="47.72" x2="82.79" y2="41.44"/><circle class="cls-24" cx="69.68" cy="33.67" r="2.55"/><circle class="cls-24" cx="109.68" cy="33.67" r="2.55"/><polygon class="cls-16" points="29.36 45.63 31.2 66.82 4.5 126.92 15.8 60.59 29.36 45.63"/><polyline class="cls-25" points="12.07 82.44 14.15 85.77 17.79 82.84 19.45 86.76 22.36 86.93 15.53 102.21 8.91 100.83 12.07 82.44"/><polygon class="cls-26" points="9.24 99.22 11.02 98.59 12.33 101.15 14.36 99.96 15.53 101.68 4.71 126.44 9.24 99.22"/><polygon class="cls-17" points="29.36 45.63 31.2 66.82 4.5 126.92 15.8 60.59 29.36 45.63"/><polygon class="cls-16" points="151.22 45.69 149.41 66.88 176.16 126.96 164.8 60.64 151.22 45.69"/><polyline class="cls-25" points="168.56 82.53 166.47 85.86 162.83 82.94 161.18 86.86 158.27 87.03 165.11 102.3 171.73 100.92 168.56 82.53"/><polygon class="cls-26" points="171.39 99.31 169.62 98.68 168.31 101.24 166.28 100.05 165.11 101.78 175.95 126.53 171.39 99.31"/><polygon class="cls-17" points="151.22 45.69 149.41 66.88 176.16 126.96 164.8 60.64 151.22 45.69"/><polygon class="cls-27" points="46.75 94.49 134.05 94.68 140.38 106.25 40.1 106.23 46.75 94.49"/></g></g></g></g></svg>