<?xml version="1.0" encoding="utf-8"?>
<!-- Generator: Adobe Illustrator 25.2.3, SVG Export Plug-In . SVG Version: 6.00 Build 0)  -->
<svg version="1.1" id="Layer_1" xmlns="http://www.w3.org/2000/svg" xmlns:xlink="http://www.w3.org/1999/xlink" x="0px" y="0px"
	 viewBox="0 0 158.9 153.4" style="enable-background:new 0 0 158.9 153.4;" xml:space="preserve">
<style type="text/css">
	.st0{fill-rule:evenodd;clip-rule:evenodd;fill:#59251B;}
	.st1{fill-rule:evenodd;clip-rule:evenodd;fill:#FFFCF5;}
	.st2{fill-rule:evenodd;clip-rule:evenodd;fill:#F1E3D6;}
	.st3{fill-rule:evenodd;clip-rule:evenodd;fill:#FFFFFF;}
	.st4{fill-rule:evenodd;clip-rule:evenodd;fill:#D14641;}
	.st5{fill-rule:evenodd;clip-rule:evenodd;fill:#FF8884;}
	.st6{fill:#F1E3D6;stroke:#59251B;stroke-width:2;stroke-miterlimit:10;}
	.st7{fill:#59251B;}
	.st8{font-family:'KaushanScript-Regular';}
	.st9{font-size:60.74px;}
</style>
<g id="Layer_2_1_">
	<g id="Layer_1-2">
		<g id="Layer_2-2">
			<g id="File_3">
				<g id="Facing_Left">
					<path class="st0" d="M121.3,27.8c22.8,15.2,36.1,38.4,34.6,68c-0.6,12.6-4.7,24.3-12.7,33.9c-17.7,21.1-48.6,26.1-73.5,22.8
						s-53.5-16-64.9-40.9c-5.2-11.3-6-23.7-3.3-36c6.4-29,25.3-47.9,51.3-56.8C54.5,9.4,62.9,2.7,72,3.9c1.5,0.2,2.9,0.6,4.2,1.2
						c3.6-3.8,8.8-5.6,14-4.9c5.2,0.7,9.7,3.8,12.2,8.4c1.5-0.2,2.9-0.2,4.4,0C115.9,9.7,122.2,18.2,121.3,27.8z"/>
					<path class="st1" d="M116.1,30.3L116.1,30.3c-1.8-1.6-6.8-3.1-9.8-3c3.4-1.2,7-1.2,10.4-0.1c0.6-6.8-4-12.9-10.5-13.8
						c-2.2-0.3-4.4,0.1-6.5,1c-2.2,0.9-6,4.8-7.4,7.6c0.9-4.1,3.1-7.9,6.2-10.7c-1.8-3.4-5.1-5.8-8.9-6.3c-5-0.6-9.9,2-12.3,6.4
						c-1.3,2.2-2.1,7.6-1.6,10.8c-1.7-3.9-2.1-8.3-1.1-12.5c-1-0.5-2.1-0.8-3.2-0.9C64.6,8,58.3,13,57.4,20.1
						c-0.1,0.8-0.1,1.6-0.1,2.4c0.2,2.5,2.8,7.2,5,9.4c-3.5-1.9-6.3-4.8-8-8.4C29.6,31.9,12,49.5,6,76.7
						c-17.9,81,141,101.8,145.1,19C152.6,66.8,139.3,44.7,116.1,30.3z"/>
					<path class="st2" d="M92.4,21.7L92.3,22L92.4,21.7z M92.3,22c0.2-5.2,1.8-9.6,4.8-12.8c0.5,0.6,1,1.3,1.4,2.1
						C95.3,14.1,93.1,17.9,92.3,22L92.3,22z"/>
					<path class="st2" d="M62.3,32c-3.5-1.9-6.3-4.8-8-8.4c-0.9,0.3-1.8,0.6-2.7,1C54.1,28.3,57.9,31,62.3,32z"/>
					<path class="st2" d="M75.6,21.2c0,0.3,0,0.7,0.1,1L75.6,21.2z M75.7,22.2c-2.6-3.8-3.7-8.5-3.1-13.1c0.7,0.2,1.4,0.4,2,0.7
						C73.6,13.9,74,18.3,75.7,22.2L75.7,22.2z"/>
					<path class="st2" d="M106.2,27.3c3.4-1.2,7-1.2,10.4-0.1c0.1-1,0.1-1.9-0.1-2.9C112.9,24.2,109.3,25.2,106.2,27.3z"/>
					<path class="st2" d="M10.3,112c26.5,49.7,137.4,52.7,140.9-16.3c0.7-10.9-1.1-21.9-5.4-32c1.6,55-25.4,86.4-84.4,74.9
						C43.5,135.1,25,125.3,10.3,112z"/>
					<path class="st0" d="M93.2,76.9c-5.2,0.7-8.7,5.5-8,10.7c0,0,0,0,0,0v0.2c0.7,5.3,5.5,9.1,10.8,8.5c5.2-0.7,8.7-5.5,8-10.7
						c0-0.1,0-0.2,0-0.2C103.3,80.1,98.5,76.3,93.2,76.9z"/>
					<path class="st3" d="M93,78.4c-2.2,0.2-3.9,2.2-3.6,4.4c0.2,2.2,2.2,3.9,4.4,3.6c2.2-0.2,3.9-2.2,3.6-4.4c0,0,0-0.1,0-0.1l0,0
						C97.1,79.7,95.2,78.1,93,78.4z"/>
					<path class="st0" d="M62.3,93.2c0.4,0,0.8,0,1.3,0c0.3,0.1,0.6,0.2,0.6,0.4s-0.2,0.4-0.5,0.5c-0.4,0.2-0.8,0.4-1.2,0.4
						c-0.5,0-0.9-0.2-1.3-0.4c-0.3-0.2-0.6-0.3-0.6-0.5s0.2-0.4,0.5-0.4C61.4,93.2,61.8,93.2,62.3,93.2z"/>
					<path class="st0" d="M38,73.4c5-0.6,9.4,3.1,9.8,8.4s-3.2,10.1-8.2,10.8c-4.9,0.5-9.3-3-9.8-7.9c0,0,0,0,0,0c0-0.2,0-0.4,0-0.5
						C29.3,78.8,33,74,38,73.4z"/>
					<path class="st3" d="M40.6,75.2c2.1-0.3,4.1,1.2,4.4,3.3c0.3,2.1-1.2,4-3.3,4.3l0,0c-2.1,0.3-4.1-1.2-4.4-3.3
						C37,77.4,38.5,75.4,40.6,75.2C40.6,75.2,40.6,75.2,40.6,75.2L40.6,75.2z"/>
					<path class="st0" d="M45.2,99.3c3.7,5.9,10.6,4.5,17.7,1.6c8.3,4.2,17,6.1,21.7,1.7c-1,1.6-2.5,2.8-4.3,3.5v0.1
						c0.1,8.1-0.7,14.1-2.8,18.6c-2.1,4.5-5.5,7.2-10.5,7.1l0,0c-4.5-0.7-7.8-3.8-10.3-8.7s-4-10.8-5.1-18.3v-0.1
						C48.6,104.3,46.1,102.2,45.2,99.3z"/>
					<path class="st4" d="M52.8,104.8c1.1,7.1,2.7,13.2,5,17.8s5.3,7.4,9.3,8.1c4.4,0,7.4-2.3,9.3-6.4s2.7-10.3,2.7-17.9
						c-2.4,0.3-4.8,0.2-7.1-0.3c-3.2-0.7-6.3-1.6-9.3-2.8c-1.8,0.5-3.7,1-5.6,1.3C55.7,104.8,54.2,104.9,52.8,104.8z"/>
					<path class="st5" d="M78.6,116.2c-3.5-1.2-7.3-1.5-11-0.9c-4,0.5-7.8,2.2-11,4.8c0.4,0.9,0.8,1.8,1.2,2.6
						c2.3,4.5,5.3,7.4,9.3,8.1c4.4,0,7.4-2.3,9.3-6.4C77.5,121.6,78.2,118.9,78.6,116.2z"/>
					<path class="st0" d="M67.4,54.3c8.5-3.1,10-15.6,7.1-21.2C73.8,42.9,71.3,49.8,67.4,54.3z"/>
					<path class="st0" d="M81,37c0.8,9.3,4.1,12.3,8.6,11.8C82.8,41.8,83,40.3,81,37z"/>
					<path class="st0" d="M72,35.9c-0.1,5.7-5.6,11.5-9.2,10.4C66.2,44.6,69.2,40.2,72,35.9z"/>
				</g>
				<circle class="st6" cx="128.2" cy="46.4" r="29.7"/>
			</g>
		</g>
	</g>
</g>
<text transform="matrix(1 0 0 1 110.4638 63.7)" class="st7 st8 st9">t</text>
</svg>
