<?xml version="1.0" encoding="utf-8"?>
<!-- Generator: Adobe Illustrator 25.3.1, SVG Export Plug-In . SVG Version: 6.00 Build 0)  -->
<svg version="1.1" id="Layer_1" xmlns="http://www.w3.org/2000/svg" xmlns:xlink="http://www.w3.org/1999/xlink" x="0px" y="0px"
	 viewBox="0 0 34 33.5" style="enable-background:new 0 0 34 33.5;" xml:space="preserve">
<style type="text/css">
	.st0{fill:#995CC4;}
</style>
<g id="Layer_2_1_">
	<g id="Layer_1-2">
		<g id="NewGroupe42">
			<g id="NewGroup0-7">
				<path class="st0" d="M16.8,17.3c-1-0.4-2.1-1-2.1-2.4c0-1,0.7-1.9,1.7-2.2v-1.2H18v1.1c0.4,0.1,0.8,0.2,1.2,0.4l0.4,0.2
					l-0.6,1.7l-0.5-0.3c-0.3-0.2-0.7-0.3-1.1-0.3c-0.4,0-0.7,0.2-0.7,0.4s0.1,0.4,1,0.8c1.1,0.3,2,1.3,2,2.5c0,1-0.7,1.9-1.7,2.3
					v1.2h-1.7v-1.1c-0.5-0.1-1-0.2-1.5-0.5l-0.3-0.2l0.6-1.7l0.5,0.4c0.4,0.2,0.8,0.4,1.3,0.4c0.4,0,0.8-0.1,0.8-0.6
					C17.7,17.9,17.7,17.6,16.8,17.3z M3.7,20.5c1.8,0,3.3-1.2,3.6-3h2c0.4,3.8,3.4,6.9,7.2,7.2v1.5c-2,0.4-3.3,2.4-2.9,4.4
					s2.4,3.3,4.4,2.9s3.3-2.4,2.9-4.4c-0.3-1.5-1.4-2.6-2.9-2.9v-1.5c3.8-0.4,6.9-3.4,7.2-7.2h1.4c0.4,2,2.4,3.3,4.4,2.9
					c2-0.4,3.3-2.4,2.9-4.4s-2.4-3.3-4.4-2.9c-1.5,0.3-2.6,1.5-2.9,2.9h-1.4c-0.4-3.9-3.4-6.9-7.3-7.2V7.3C20,6.9,21.3,5,20.9,3
					c-0.4-2-2.4-3.3-4.4-2.9s-3.3,2.4-2.9,4.4c0.3,1.5,1.4,2.6,2.9,2.9v1.5c-3.8,0.4-6.9,3.4-7.2,7.3h-2c-0.4-2-2.3-3.3-4.4-2.9
					s-3.3,2.3-2.9,4.4C0.4,19.2,1.9,20.5,3.7,20.5L3.7,20.5z"/>
			</g>
		</g>
	</g>
</g>
</svg>
