<svg xmlns="http://www.w3.org/2000/svg" viewBox="0 0 34 33.98"><defs><style>.cls-1{fill:#384a5e;}</style></defs><g id="Layer_2" data-name="Layer 2"><g id="Layer_1-2" data-name="Layer 1"><g id="NewGroupe45"><g id="NewGroup0-4"><path class="cls-1" d="M7.09,15.73h2.2a.74.74,0,1,0,0-1.47H7.44A10.36,10.36,0,0,1,10.15,9.9l1.26,1.43a.71.71,0,0,0,.55.25.76.76,0,0,0,.49-.18.74.74,0,0,0,.06-1L11.28,9A10.32,10.32,0,0,1,16.62,7V8.63a.73.73,0,0,0,.73.74.74.74,0,0,0,.74-.74V7a10.41,10.41,0,0,1,5.2,1.84L22,10.36a.74.74,0,0,0,.06,1,.76.76,0,0,0,.49.18.71.71,0,0,0,.55-.25l1.36-1.54a10.45,10.45,0,0,1,2.91,4.77H25.46a.74.74,0,0,0,0,1.47h2.19a10.2,10.2,0,0,1,.09,1.35H18.66a1.3,1.3,0,0,0-.36-.9l2.39-4.16a.48.48,0,0,0,.08-.28.57.57,0,0,0-1.06-.29l-2.5,4.33A1.31,1.31,0,0,0,16,17.38H7a11.24,11.24,0,0,1,.13-1.65ZM1,20.16H2.27a1,1,0,0,1,1,.75,14.31,14.31,0,0,0,1.09,2.72,1,1,0,0,1-.19,1.22l-.89.87a1,1,0,0,0,0,1.47l3.26,3.33a1,1,0,0,0,1.47,0l.89-.87a1,1,0,0,1,1.23-.17,14.2,14.2,0,0,0,2.69,1.14,1,1,0,0,1,.73,1V32.9a1,1,0,0,0,1,1l4.66,0a1,1,0,0,0,1.05-1V31.71a1,1,0,0,1,.75-1,13.87,13.87,0,0,0,2.71-1.1,1,1,0,0,1,1.22.19l.87.88a1,1,0,0,0,1.47,0l3.32-3.28a1,1,0,0,0,0-1.47l-.87-.88a1,1,0,0,1-.18-1.23,14.2,14.2,0,0,0,1.14-2.69,1,1,0,0,1,1-.74h1.25a1,1,0,0,0,1-1l0-4.66a1,1,0,0,0-1-1H31.72a1,1,0,0,1-1-.74,14.28,14.28,0,0,0-1.11-2.71A1,1,0,0,1,29.8,9l.88-.88a1,1,0,0,0,0-1.47l-3.3-3.3a1,1,0,0,0-1.46,0L25,4.22a1,1,0,0,1-1.22.18,14.23,14.23,0,0,0-2.7-1.12,1.05,1.05,0,0,1-.74-1V1a1,1,0,0,0-1-1H14.68a1,1,0,0,0-1,1V2.28a1,1,0,0,1-.74,1,14.27,14.27,0,0,0-2.49,1,1,1,0,0,1-1.23-.2L8.32,3.2a1,1,0,0,0-1.47,0L3.5,6.43a1,1,0,0,0,0,1.47l.87.89A1,1,0,0,1,4.51,10a14.65,14.65,0,0,0-1.16,2.69,1,1,0,0,1-1,.72l-1.24,0a1,1,0,0,0-1,1L0,19.11a1,1,0,0,0,1,1.05Z"/></g></g></g></g></svg>