<?xml version="1.0" encoding="utf-8"?>
<!-- Generator: Adobe Illustrator 25.3.1, SVG Export Plug-In . SVG Version: 6.00 Build 0)  -->
<svg version="1.1" id="Layer_1" xmlns="http://www.w3.org/2000/svg" xmlns:xlink="http://www.w3.org/1999/xlink" x="0px" y="0px"
	 viewBox="0 0 34 33.9" style="enable-background:new 0 0 34 33.9;" xml:space="preserve">
<style type="text/css">
	.st0{fill:#77D16D;}
</style>
<g id="Layer_2_1_">
	<g id="Layer_1-2">
		<g id="NewGroupe40">
			<g id="NewGroup0-9">
				<path class="st0" d="M1.1,30.7c0,1.2,1,2.1,2.2,2.1l27.6,0.1v1.1l3.2-1.8l-3.2-1.8v1.1h-2.9C28,31.3,28,31.1,28,31V12.1
					c0-0.6-0.5-1.2-1.2-1.1h-2.7c-0.6,0-1.2,0.5-1.2,1.1V31c0,0.1,0,0.3,0.1,0.4H19c0,0,0,0,0-0.1V17.5c0-0.5-0.4-0.8-0.8-0.8h-3.3
					c-0.5,0-0.8,0.4-0.8,0.8v13.9h-3c0-0.1,0-0.1,0-0.2v-8.8c0-0.6-0.4-1-1-1H7c-0.6,0-1,0.4-1,1v8.7c0,0.1,0,0.1,0,0.2H3.2
					c-0.4,0-0.7-0.3-0.7-0.6V3.2h1.1L1.8,0L0,3.2h1.1V30.7z"/>
				<path class="st0" d="M8.5,16.4c0.1,0,0.3,0,0.4-0.1l12.8-8.7l1.2,1.8l2.6-5.3l-5.8,0.4l1.2,1.8L8.1,15.1c-0.3,0.2-0.4,0.7-0.2,1
					C8,16.3,8.2,16.4,8.5,16.4L8.5,16.4z"/>
			</g>
		</g>
	</g>
</g>
</svg>
