<?xml version="1.0" encoding="utf-8"?>
<!-- Generator: Adobe Illustrator 25.3.1, SVG Export Plug-In . SVG Version: 6.00 Build 0)  -->
<svg version="1.1" id="Layer_1" xmlns="http://www.w3.org/2000/svg" xmlns:xlink="http://www.w3.org/1999/xlink" x="0px" y="0px"
	 viewBox="0 0 27.4 34" style="enable-background:new 0 0 27.4 34;" xml:space="preserve">
<style type="text/css">
	.st0{fill:#7DBCF4;}
</style>
<g id="Layer_2_1_">
	<g id="Layer_1-2">
		<g id="NewGroupe33">
			<g id="NewGroup0-16">
				<path class="st0" d="M14,5.7v0.6h-0.8V5.7c-0.3,0-0.5-0.1-0.7-0.3l-0.1-0.1l0.3-0.8l0.3,0.2c0.2,0.1,0.4,0.2,0.6,0.2
					c0.2,0,0.4-0.1,0.4-0.3s0-0.2-0.5-0.4s-1-0.5-1-1.2c0-0.5,0.4-0.9,0.8-1V1.4h0.8V2c0.2,0,0.4,0.1,0.6,0.2l0.2,0.1L14.5,3
					l-0.2-0.1c-0.2-0.1-0.4-0.2-0.6-0.2c-0.2,0-0.3,0.1-0.3,0.2s0,0.2,0.5,0.4c0.6,0.1,1,0.6,1,1.2C14.9,5.1,14.5,5.5,14,5.7z
					 M17.6,3.9c0-2.2-1.8-3.9-3.9-3.9S9.7,1.8,9.7,3.9s1.8,3.9,3.9,3.9c0,0,0,0,0,0C15.9,7.9,17.6,6.1,17.6,3.9
					C17.6,3.9,17.6,3.9,17.6,3.9L17.6,3.9z"/>
				<path class="st0" d="M7.8,24.2l-0.1-0.1c-0.4-0.3-0.8-0.5-1.2-0.6c-0.5-0.2-1-0.3-1.5-0.3c-0.5,0-0.9,0.1-1.4,0.2
					C1.4,24.1,0,26,0,28.1v5.4C0,33.8,0.2,34,0.5,34c0,0,0,0,0,0H7c-0.1-0.2-0.1-0.4-0.1-0.6v-5.9C6.9,26.3,7.2,25.2,7.8,24.2
					L7.8,24.2z"/>
				<path class="st0" d="M8.7,33.9V34h10.2l0-0.1c0.2-0.1,0.3-0.3,0.3-0.5v-5.9c0-0.8-0.2-1.6-0.5-2.3c-0.2-0.5-0.5-0.9-0.9-1.3l0,0
					l-0.1-0.2c-2.1-2.1-5.5-2.1-7.6,0c-0.1,0.1-0.2,0.2-0.3,0.3l0,0c-0.4,0.4-0.7,0.9-0.9,1.4c-0.3,0.7-0.4,1.4-0.4,2.1v5.9
					C8.5,33.6,8.6,33.8,8.7,33.9z"/>
				<path class="st0" d="M20.6,34h6.3c0.3,0,0.5-0.2,0.5-0.5l0,0v-5.4c0-2.1-1.3-4-3.3-4.6c-0.9-0.3-2-0.3-2.9-0.1l0,0
					c-0.4,0.1-0.9,0.3-1.2,0.6l-0.1,0.1c0.6,1,0.9,2.2,0.9,3.4v5.9C20.7,33.6,20.7,33.8,20.6,34z"/>
				<path class="st0" d="M5,22.1c1.3,0,2.3-1,2.3-2.3c0-1.3-1-2.3-2.3-2.3s-2.3,1-2.3,2.3c0,0,0,0,0,0C2.7,21.1,3.7,22.1,5,22.1
					C5,22.1,5,22.1,5,22.1z"/>
				<path class="st0" d="M21.4,21.7c0.4,0.3,0.8,0.4,1.3,0.4c1.3,0,2.3-1,2.3-2.3s-1-2.3-2.3-2.3s-2.3,1-2.3,2.3
					C20.4,20.5,20.8,21.3,21.4,21.7z"/>
				<path class="st0" d="M10.8,18c0,1.7,1.4,3.1,3.1,3.1s3.1-1.4,3.1-3.1s-1.4-3.1-3.1-3.1l0,0C12.1,14.9,10.8,16.3,10.8,18z"/>
				<path class="st0" d="M8.1,13.1l3.2-4c0.2-0.3,0.2-0.7-0.1-1c-0.3-0.2-0.8-0.2-1,0.1l-3.2,4l-0.6-0.4l-0.4,2.9l2.7-1.1L8.1,13.1
					L8.1,13.1z"/>
				<path class="st0" d="M13.8,14c0.4,0,0.7-0.3,0.7-0.7v-2.1h0.7l-1.5-2.6l-1.5,2.5H13v2.1C13,13.6,13.3,14,13.8,14L13.8,14z"/>
				<path class="st0" d="M21,11.6l-0.6,0.4l-3.2-4c-0.3-0.3-0.7-0.4-1-0.1s-0.4,0.7-0.1,1l3.2,4l-0.6,0.4l2.7,1.1L21,11.6L21,11.6z"
					/>
			</g>
		</g>
	</g>
</g>
</svg>
