<svg xmlns="http://www.w3.org/2000/svg" viewBox="0 0 1116.8 1116.81"><defs><style>.cls-1{fill:#1f192f;}.cls-2{fill:#fff;}.cls-3{fill:#7dbcf4;}.cls-3,.cls-4,.cls-5{fill-rule:evenodd;}.cls-4{fill:#65c48e;}.cls-5{fill:#995cc4;}</style></defs><g id="Layer_2" data-name="Layer 2"><g id="Layer_1-2" data-name="Layer 1"><polygon class="cls-1" points="159.26 189.16 207.86 142.33 335.77 100.57 436.23 60.4 535.78 11.63 578.7 11.63 708.32 72.74 908.94 144.28 966.93 198.91 1007.05 335.47 1091.29 503.25 1103.49 558.41 1072.28 659.87 1019.02 770.52 964.16 932.8 765.99 1019.02 578.7 1102.17 508.47 1091.28 411.79 1044.63 320.17 1007.07 207.86 967.56 159.26 928.54 122.2 844.65 97.76 751.01 44.16 659.87 25.51 606.54 11 550.08 25.51 507.15 50.01 450.57 109.77 312.06 139.27 219.88 159.26 189.16"/><path class="cls-2" d="M97.76,558.39l9.8-45.39,16.59-37.07,21.46-35.64,27.31-58L192.43,313l15.43-44.17,22-34.84,33.72-21.46,86.82-30.24,64.38-24.39,42.92-26.34,53.65-21.85,35.11-12,40,2.8,34.14,9.18L686,146.24l39,21.46,60.53,21.46,53.8,16.58s37.89,22.43,40.81,23.41,28.83,39.74,28.83,39.74l19,46.1s9.75,39,10.73,41.94,33.16,83.36,33.16,83.36l22.44,44.42,12.81,32.19,12,58.53-6.25,38-26.33,36.09L965,686.63l-17.56,41.94-20.49,71.21L917.18,829l-25.36,50.73L848.9,908.06l-48.77,16.58-39,10.73-68.28,25.36-51.77,36.09L570.9,1019l-38-2.82-47.8-22.31-41.94-17.55L391.42,951l-45.85-17.55-45.84-15.61-44.87-17.56-25-20.48-28.7-38L163.16,725.65Z"/><path class="cls-3" d="M361.62,83.3c60.6-25.11,131.18,0,196.79,0s136.17-25.08,196.75,0S848,176.06,894.34,222.47s114,78.53,139.14,139.14,0,131.18,0,196.77,25.11,136.19,0,196.78-92.77,92.77-139.16,139.15-78.56,114.05-139.16,139.16-131.16,0-196.75,0-136.19,25.08-196.77,0-92.79-92.76-139.18-139.16-114-78.55-139.16-139.15,0-131.18,0-196.76-25.08-136.19,0-196.79,92.74-92.77,139.13-139.16S301,108.41,361.62,83.3Zm9.78,23.6c-52.18,21.61-90.72,93.46-130.87,133.61s-112,78.71-133.63,130.88,1.93,130.22,1.93,187-23.57,134.84-1.93,187,93.46,90.73,133.61,130.86,78.71,112,130.89,133.61,130.24-1.94,187-1.94,134.82,23.58,187,2,90.73-93.47,130.87-133.61,112-78.71,133.64-130.89-1.94-130.24-1.94-187,23.52-134.85,1.94-187-93.49-90.7-133.64-130.84-78.71-112-130.87-133.63-130.24,1.92-187,1.92-134.88-23.53-187-1.92Z"/><path class="cls-4" d="M558.41,0C629.64,0,690,54.51,755.83,81.77s147,31.41,197.42,81.77S1007.77,295.16,1035,361s81.76,126.21,81.76,197.42S1062.28,690,1035,755.83s-31.42,147-81.79,197.43S821.67,1007.77,755.83,1035s-126.19,81.78-197.42,81.78S426.81,1062.28,361,1035s-147-31.42-197.42-81.77S109,821.64,81.77,755.83,0,629.64,0,558.4,54.52,426.79,81.77,361s31.41-147,81.78-197.44S295.14,109.06,361,81.77,487.16,0,558.41,0Zm0,25.52c-62.14,0-130.13,56-187.66,79.84S225.54,137.68,181.6,181.6s-52.4,131.64-76.24,189.14S25.51,496.29,25.51,558.4s56,130.15,79.85,187.65,32.33,145.21,76.24,189.16,131.63,52.42,189.15,76.24,125.52,79.83,187.66,79.83,130.11-56,187.64-79.83,145.22-32.31,189.13-76.24,52.42-131.63,76.26-189.16,79.85-125.52,79.85-187.65-56-130.13-79.85-187.66-32.32-145.2-76.26-189.14-131.63-52.4-189.13-76.24S620.53,25.52,558.41,25.52Z"/><path class="cls-5" d="M558.41,84.23c60.47,0,111.78,46.31,167.63,69.45s124.86,26.67,167.63,69.44S940,334.86,963.14,390.75s69.45,107.15,69.45,167.65-46.3,111.78-69.45,167.67S936.47,850.92,893.67,893.7,781.92,940,726,963.12s-107.16,69.47-167.63,69.47-111.8-46.31-167.65-69.47S265.9,936.46,223.11,893.7s-46.3-111.76-69.45-167.63S84.22,618.9,84.22,558.4s46.29-111.76,69.44-167.65,26.67-124.86,69.45-167.63,111.75-46.31,167.65-69.44S497.92,84.23,558.41,84.23Zm0,25.52c-51.35,0-110,47.68-157.87,67.49s-123.07,27.63-159.39,63.92-44.07,111.51-63.9,159.38S109.77,507.06,109.77,558.4s47.66,110,67.48,157.87,27.63,123.08,63.9,159.38,111.51,44.08,159.39,63.92,106.52,67.5,157.87,67.5,110-47.68,157.85-67.5S839.33,912,875.65,875.65s44.07-111.51,63.9-159.38,67.5-106.51,67.5-157.87-47.67-110-67.5-157.86-27.61-123.08-63.9-159.38-111.51-44.08-159.39-63.92-106.52-67.49-157.85-67.49Z"/><path d="M216,659.86a8,8,0,0,1-5.65-2.35,7.65,7.65,0,0,1-2.51-5.8V448.44a7.65,7.65,0,0,1,2.51-5.8,8,8,0,0,1,5.65-2.35h86q30.42,0,52.7,9.88t35.13,29q12.85,19.14,13.8,47.06.63,13.49.63,23.84t-.63,23.52q-1.26,29.49-13.33,48.62t-34,28.39q-22,9.25-52.7,9.25Zm59.29-53.32H302q10.35,0,17.57-3.45a25.14,25.14,0,0,0,11.29-10.82q4.07-7.37,4.39-19,.3-9.09.47-16.31t0-14.43q-.17-7.21-.47-16-.63-17.25-9.88-25.09t-24.94-7.85H275.31Z"/><path d="M444.38,659.86a8.06,8.06,0,0,1-5.65-2.35,7.65,7.65,0,0,1-2.51-5.8V448.44a7.65,7.65,0,0,1,2.51-5.8,8.06,8.06,0,0,1,5.65-2.35h153.7a8.45,8.45,0,0,1,6,2.35,7.64,7.64,0,0,1,2.5,5.8v37a7.79,7.79,0,0,1-2.5,5.64,8.15,8.15,0,0,1-6,2.51H501.16v31.06h90a8.4,8.4,0,0,1,6,2.35,7.61,7.61,0,0,1,2.51,5.8V566.7a7.6,7.6,0,0,1-2.51,5.8,8.41,8.41,0,0,1-6,2.36h-90v31.68h99.43a8.57,8.57,0,0,1,8.47,8.47v36.7a7.61,7.61,0,0,1-2.51,5.8,8.4,8.4,0,0,1-6,2.35Z"/><path d="M649.22,659.86a8,8,0,0,1-5.65-2.35,7.61,7.61,0,0,1-2.51-5.8V448.44a7.61,7.61,0,0,1,2.51-5.8,8,8,0,0,1,5.65-2.35H800.41a8.42,8.42,0,0,1,6,2.35,7.65,7.65,0,0,1,2.51,5.8v39.84a7.84,7.84,0,0,1-2.51,5.65,8.17,8.17,0,0,1-6,2.51H707.25v34.5h86.89a8.46,8.46,0,0,1,6,2.35,7.67,7.67,0,0,1,2.51,5.81v39.52a7.63,7.63,0,0,1-2.51,5.8,8.43,8.43,0,0,1-6,2.36H707.25v64.93a8,8,0,0,1-8.16,8.15Z"/><path d="M847.46,659.86a8.06,8.06,0,0,1-5.65-2.35,7.65,7.65,0,0,1-2.51-5.8V448.44a7.65,7.65,0,0,1,2.51-5.8,8.06,8.06,0,0,1,5.65-2.35h53.33a8,8,0,0,1,8.15,8.15V651.71a8,8,0,0,1-8.15,8.15Z"/></g></g></svg>