<svg xmlns="http://www.w3.org/2000/svg" xmlns:xlink="http://www.w3.org/1999/xlink" viewBox="0 0 1025.89 1025.88"><defs><style>.cls-1{fill:url(#New_Gradient_Swatch);}.cls-2{fill:#241f38;}.cls-3{fill:#fff;}</style><linearGradient id="New_Gradient_Swatch" y1="512.94" x2="1025.89" y2="512.94" gradientUnits="userSpaceOnUse"><stop offset="0" stop-color="#995cc4"/><stop offset="0.01" stop-color="#9465bf"/><stop offset="0.05" stop-color="#8387ae"/><stop offset="0.09" stop-color="#76a2a0"/><stop offset="0.13" stop-color="#6db596"/><stop offset="0.17" stop-color="#67c090"/><stop offset="0.22" stop-color="#65c48e"/><stop offset="0.53" stop-color="#7dbcf4"/><stop offset="0.77" stop-color="#65c48e"/><stop offset="1" stop-color="#995cc4"/></linearGradient></defs><g id="Layer_2" data-name="Layer 2"><g id="Layer_1-2" data-name="Layer 1"><path class="cls-1" d="M898.09,409.72a524.91,524.91,0,0,0-35.82-58.66,549.73,549.73,0,0,1,20.89,62.69,555,555,0,0,1,13.26,64.72,524.88,524.88,0,0,0,1.67-68.75M863.82,243.66a520.54,520.54,0,0,0-86.88-51.09c-6.86-3.19-13.81-6.23-20.8-9.13a544,544,0,0,1,68,90.68,543.07,543.07,0,0,1,70,89.09q-1.46-11.22-3.42-22.37A522.12,522.12,0,0,0,863.82,243.66ZM762.66,80.43A509.67,509.67,0,0,0,607,70a543.19,543.19,0,0,1,115.42,80.12A541.73,541.73,0,0,1,849.51,210,509,509,0,0,0,762.66,80.43Zm-499.44,865a509.71,509.71,0,0,0,155.67,10.44,542.44,542.44,0,0,1-115.42-80.13,543.19,543.19,0,0,1-127.1-59.89A509.75,509.75,0,0,0,263.22,945.45ZM127.79,616.16a524,524,0,0,0,35.82,58.66,553.3,553.3,0,0,1-34.14-127.4A530,530,0,0,0,127.79,616.16Zm34.28,166.06A521.35,521.35,0,0,0,249,833.31q10.29,4.79,20.8,9.13a545,545,0,0,1-68-90.67,544.58,544.58,0,0,1-70-89.1q1.46,11.24,3.42,22.37A521.36,521.36,0,0,0,162.07,782.22Zm55.4-516.13a523.27,523.27,0,0,0-49.86,47.47,527.45,527.45,0,0,0-16.18,66.92,554.17,554.17,0,0,1,66-114.39Zm-143,189.09a521.7,521.7,0,0,0,25.31,97.59q3.9,10.63,8.24,21.1a544.31,544.31,0,0,1,16-112.15A544.76,544.76,0,0,1,137.57,349.2q-6.93,9-13.44,18.29A521.37,521.37,0,0,0,74.43,455.18Zm-43.89,187A509.27,509.27,0,0,0,133.23,759.65a538.46,538.46,0,0,1-17.49-71.21,544.49,544.49,0,0,1-7.49-67,548.48,548.48,0,0,1-27.06-61.85,542.19,542.19,0,0,1-20.44-70.4A510.05,510.05,0,0,0,30.54,642.18ZM808.42,759.79a528.25,528.25,0,0,0,49.87-47.47,525.69,525.69,0,0,0,16.16-66.92,552.33,552.33,0,0,1-66,114.39Zm143-189.09a521.76,521.76,0,0,0-25.33-97.59q-3.89-10.64-8.23-21.1a543.63,543.63,0,0,1-16,112.15,544,544,0,0,1-13.55,112.52q6.91-9,13.45-18.29A522.46,522.46,0,0,0,951.46,570.7Zm43.89-187A510.29,510.29,0,0,0,892.68,266.23a544.08,544.08,0,0,1,25,138.25,543.19,543.19,0,0,1,47.53,132.25A510,510,0,0,0,995.35,383.69ZM363.21,131.78q-11.2,1.47-22.37,3.41a522,522,0,0,0-97.18,26.87,522,522,0,0,0-51.09,86.88q-4.77,10.29-9.12,20.8a545,545,0,0,1,90.67-68A544.44,544.44,0,0,1,363.21,131.78Zm115.25-2.31a522.88,522.88,0,0,0-68.73-1.67,520.64,520.64,0,0,0-58.66,35.81,552.06,552.06,0,0,1,127.39-34.14Zm167,22a553.24,553.24,0,0,1,114.38,66,524.47,524.47,0,0,0-47.46-49.87A526.6,526.6,0,0,0,645.41,151.43ZM452,108A544,544,0,0,1,564.2,124a545.32,545.32,0,0,1,112.49,13.55q-9-6.93-18.3-13.45a522.07,522.07,0,0,0-87.68-49.7A523.25,523.25,0,0,0,473.1,99.74Q462.48,103.64,452,108ZM266.23,133.21a542.34,542.34,0,0,1,138.26-25A543.46,543.46,0,0,1,536.73,60.73a509.36,509.36,0,0,0-153-30.19A509.32,509.32,0,0,0,266.23,133.21Zm-185.8,130A509.33,509.33,0,0,0,70,418.9a544.58,544.58,0,0,1,80.09-115.42,548.94,548.94,0,0,1,24.63-62.88A541.08,541.08,0,0,1,210,176.37,509,509,0,0,0,80.43,263.23ZM662.68,894.11c7.48-1,15-2.12,22.36-3.42a520.59,520.59,0,0,0,97.18-26.87,522.78,522.78,0,0,0,51.1-86.88q4.77-10.29,9.1-20.81a543.29,543.29,0,0,1-90.67,68A544.05,544.05,0,0,1,662.68,894.11Zm-115.25,2.3a524.67,524.67,0,0,0,68.73,1.68,522.65,522.65,0,0,0,58.67-35.82,552.32,552.32,0,0,1-127.4,34.14ZM331.21,827.72a528.77,528.77,0,0,0,133.16,54.39,531.73,531.73,0,0,0,275.21-73.73A531,531,0,0,0,882.12,561.49a531.61,531.61,0,0,0-73.74-275.18A531.06,531.06,0,0,0,561.52,143.77,531.59,531.59,0,0,0,286.31,217.5,531.06,531.06,0,0,0,143.78,464.39a531.34,531.34,0,0,0,73.73,275.18A528.71,528.71,0,0,0,331.21,827.72Zm49.25,46.73a553.52,553.52,0,0,1-114.37-66,525.82,525.82,0,0,0,47.48,49.87A527,527,0,0,0,380.46,874.45ZM573.87,917.9a543.84,543.84,0,0,1-112.17-16A544.57,544.57,0,0,1,349.2,888.3q9,6.91,18.29,13.45a522.16,522.16,0,0,0,87.69,49.7,520,520,0,0,0,97.59-25.33Q563.41,922.25,573.87,917.9Zm185.79-25.24a541.82,541.82,0,0,1-138.25,25,544.74,544.74,0,0,1-132.26,47.52A509.6,509.6,0,0,0,642.2,995.34,509.15,509.15,0,0,0,759.66,892.66Zm185.79-130A509.67,509.67,0,0,0,955.89,607,543.92,543.92,0,0,1,875.78,722.4a543.7,543.7,0,0,1-59.92,127.11A509.2,509.2,0,0,0,945.45,762.66ZM219.31,933.46c3.34,1.07,6.68,2.12,10,3.12a530.84,530.84,0,0,1-83.61-141.9A531.41,531.41,0,0,1,30.34,677.25c.1,3.46.24,6.93.41,10.39A510.6,510.6,0,0,0,219.31,933.46Zm383.42,84.43c3.11-1.6,6.17-3.21,9.22-4.85a531.4,531.4,0,0,1-159.4-41.21,531.49,531.49,0,0,1-164.68-1.46c2.54,2.4,5.1,4.77,7.71,7.12A510.63,510.63,0,0,0,602.73,1017.89ZM933.47,806.57c1.07-3.33,2.09-6.67,3.1-10a531.52,531.52,0,0,1-141.88,83.61A531.57,531.57,0,0,1,677.25,995.53c3.47-.09,6.92-.22,10.4-.4A510.57,510.57,0,0,0,933.47,806.57Zm84.43-383.43q-2.4-4.63-4.86-9.21a531,531,0,0,1-41.21,159.4A531.25,531.25,0,0,1,970.37,738c2.39-2.55,4.77-5.11,7.13-7.71A510.64,510.64,0,0,0,1017.9,423.14ZM806.54,92.42c-3.31-1.09-6.66-2.12-10-3.12a531.59,531.59,0,0,1,83.6,141.9,531.28,531.28,0,0,1,115.4,117.44c-.1-3.47-.24-6.94-.4-10.4A510.64,510.64,0,0,0,806.54,92.42ZM423.13,8c-3.1,1.59-6.15,3.21-9.2,4.85a530.93,530.93,0,0,1,159.4,41.2A530.64,530.64,0,0,1,738,55.52q-3.81-3.6-7.7-7.11A510.48,510.48,0,0,0,423.13,8ZM92.41,219.33q-1.6,5-3.1,10a531.59,531.59,0,0,1,141.9-83.6A530.49,530.49,0,0,1,348.64,30.35q-5.19.13-10.4.39A510.72,510.72,0,0,0,92.41,219.33ZM8,602.74q2.37,4.63,4.84,9.22A531.46,531.46,0,0,1,54.06,452.54,531.19,531.19,0,0,1,55.5,287.86c-2.38,2.55-4.75,5.1-7.09,7.7A510.5,510.5,0,0,0,8,602.74Zm507.67-94.52a5.45,5.45,0,1,1-4.14-.55A5.45,5.45,0,0,1,515.67,508.22Z"/><ellipse class="cls-2" cx="512.94" cy="516.02" rx="375.47" ry="372.28"/><path d="M215.5,625.84a7.7,7.7,0,0,1-5.4-2.25,7.31,7.31,0,0,1-2.4-5.55V423.64a7.31,7.31,0,0,1,2.4-5.55,7.7,7.7,0,0,1,5.4-2.25h82.2q29.1,0,50.4,9.45T381.7,453q12.3,18.3,13.2,45,.6,12.9.6,22.8t-.6,22.5q-1.2,28.2-12.75,46.5T349.6,617q-21,8.85-50.4,8.85Zm56.7-51h25.5q9.9,0,16.8-3.3a24,24,0,0,0,10.8-10.35q3.9-7.05,4.2-18.15.3-8.7.45-15.6t0-13.8q-.15-6.9-.45-15.3-.6-16.5-9.45-24t-23.85-7.5h-24Z"/><path d="M418.9,625.84a7.7,7.7,0,0,1-5.4-2.25,7.31,7.31,0,0,1-2.4-5.55V423.64a7.31,7.31,0,0,1,2.4-5.55,7.7,7.7,0,0,1,5.4-2.25h147a8.05,8.05,0,0,1,5.7,2.25,7.31,7.31,0,0,1,2.4,5.55V459a7.46,7.46,0,0,1-2.4,5.4,7.79,7.79,0,0,1-5.7,2.4H473.2v29.7h86.1a8.05,8.05,0,0,1,5.7,2.25,7.31,7.31,0,0,1,2.4,5.55v32.4a7.31,7.31,0,0,1-2.4,5.55,8.05,8.05,0,0,1-5.7,2.25H473.2v30.3h95.1a8.2,8.2,0,0,1,8.1,8.1V618a7.31,7.31,0,0,1-2.4,5.55,8.05,8.05,0,0,1-5.7,2.25Z"/><path d="M599.8,625.84a7.7,7.7,0,0,1-5.4-2.25A7.31,7.31,0,0,1,592,618V423.64a7.31,7.31,0,0,1,2.4-5.55,7.7,7.7,0,0,1,5.4-2.25H744.4a8.05,8.05,0,0,1,5.7,2.25,7.31,7.31,0,0,1,2.4,5.55v38.1a7.46,7.46,0,0,1-2.4,5.4,7.79,7.79,0,0,1-5.7,2.4H655.3v33h83.1a8.05,8.05,0,0,1,5.7,2.25,7.31,7.31,0,0,1,2.4,5.55v37.8a7.31,7.31,0,0,1-2.4,5.55,8.05,8.05,0,0,1-5.7,2.25H655.3V618a7.68,7.68,0,0,1-7.8,7.8Z"/><path d="M774.4,625.84a7.66,7.66,0,0,1-5.4-2.25,7.27,7.27,0,0,1-2.4-5.55V423.64a7.27,7.27,0,0,1,2.4-5.55,7.66,7.66,0,0,1,5.4-2.25h51a7.68,7.68,0,0,1,7.8,7.8V618a7.68,7.68,0,0,1-7.8,7.8Z"/><path class="cls-3" d="M215.5,620.84a7.7,7.7,0,0,1-5.4-2.25,7.31,7.31,0,0,1-2.4-5.55V418.64a7.31,7.31,0,0,1,2.4-5.55,7.7,7.7,0,0,1,5.4-2.25h82.2q29.1,0,50.4,9.45T381.7,448q12.3,18.3,13.2,45,.6,12.9.6,22.8t-.6,22.5q-1.2,28.2-12.75,46.5T349.6,612q-21,8.85-50.4,8.85Zm56.7-51h25.5q9.9,0,16.8-3.3a24,24,0,0,0,10.8-10.35q3.9-7.05,4.2-18.15.3-8.7.45-15.6t0-13.8q-.15-6.9-.45-15.3-.6-16.5-9.45-24t-23.85-7.5h-24Z"/><path class="cls-3" d="M418.9,620.84a7.7,7.7,0,0,1-5.4-2.25,7.31,7.31,0,0,1-2.4-5.55V418.64a7.31,7.31,0,0,1,2.4-5.55,7.7,7.7,0,0,1,5.4-2.25h147a8.05,8.05,0,0,1,5.7,2.25,7.31,7.31,0,0,1,2.4,5.55V454a7.46,7.46,0,0,1-2.4,5.4,7.79,7.79,0,0,1-5.7,2.4H473.2v29.7h86.1a8.05,8.05,0,0,1,5.7,2.25,7.31,7.31,0,0,1,2.4,5.55v32.4a7.31,7.31,0,0,1-2.4,5.55,8.05,8.05,0,0,1-5.7,2.25H473.2v30.3h95.1a8.2,8.2,0,0,1,8.1,8.1V613a7.31,7.31,0,0,1-2.4,5.55,8.05,8.05,0,0,1-5.7,2.25Z"/><path class="cls-3" d="M599.8,620.84a7.7,7.7,0,0,1-5.4-2.25A7.31,7.31,0,0,1,592,613V418.64a7.31,7.31,0,0,1,2.4-5.55,7.7,7.7,0,0,1,5.4-2.25H744.4a8.05,8.05,0,0,1,5.7,2.25,7.31,7.31,0,0,1,2.4,5.55v38.1a7.46,7.46,0,0,1-2.4,5.4,7.79,7.79,0,0,1-5.7,2.4H655.3v33h83.1a8.05,8.05,0,0,1,5.7,2.25,7.31,7.31,0,0,1,2.4,5.55v37.8a7.31,7.31,0,0,1-2.4,5.55,8.05,8.05,0,0,1-5.7,2.25H655.3V613a7.68,7.68,0,0,1-7.8,7.8Z"/><path class="cls-3" d="M774.4,620.84a7.66,7.66,0,0,1-5.4-2.25,7.27,7.27,0,0,1-2.4-5.55V418.64a7.27,7.27,0,0,1,2.4-5.55,7.66,7.66,0,0,1,5.4-2.25h51a7.68,7.68,0,0,1,7.8,7.8V613a7.68,7.68,0,0,1-7.8,7.8Z"/></g></g></svg>