<svg xmlns="http://www.w3.org/2000/svg" xmlns:xlink="http://www.w3.org/1999/xlink" viewBox="0 0 1116.8 1116.81"><defs><style>.cls-1{fill:#1f192f;}.cls-1,.cls-2,.cls-3,.cls-4{fill-rule:evenodd;}.cls-2{fill:url(#linear-gradient);}.cls-3{fill:url(#linear-gradient-2);}.cls-4{fill:url(#New_Gradient_Swatch);}.cls-5{font-size:298.07px;fill:#fff;font-family:Rubik-ExtraBold, Rubik;font-weight:800;letter-spacing:-0.06em;}.cls-6{letter-spacing:-0.05em;}.cls-7{letter-spacing:-0.07em;}</style><linearGradient id="linear-gradient" x1="72.15" y1="558.41" x2="1044.65" y2="558.41" gradientUnits="userSpaceOnUse"><stop offset="0" stop-color="#995cc4"/><stop offset="0.01" stop-color="#9465bf"/><stop offset="0.05" stop-color="#8387ae"/><stop offset="0.09" stop-color="#76a2a0"/><stop offset="0.13" stop-color="#6db596"/><stop offset="0.17" stop-color="#67c090"/><stop offset="0.22" stop-color="#65c48e"/><stop offset="0.53" stop-color="#7dbcf4"/><stop offset="0.77" stop-color="#65c48e"/><stop offset="1" stop-color="#995cc4"/></linearGradient><linearGradient id="linear-gradient-2" x1="0" y1="558.41" x2="1116.8" y2="558.41" xlink:href="#linear-gradient"/><linearGradient id="New_Gradient_Swatch" x1="84.22" y1="558.41" x2="1032.59" y2="558.41" xlink:href="#linear-gradient"/></defs><g id="Layer_2" data-name="Layer 2"><g id="Layer_1-2" data-name="Layer 1"><polygon class="cls-1" points="335.78 189.54 544.08 100.59 641.07 122.23 863.05 220.26 905.48 265.62 944.98 385.6 1007.06 509.97 1019.03 577.28 978.64 673.85 898.16 866.98 846.95 916.73 573.34 1016.22 498.72 1009.89 239.74 894.78 207.87 840.64 168.04 733.83 118.3 631.41 97.77 552.9 109.78 496.44 162.19 407.55 188.53 321.22 223.65 243.68 275.31 207.1 335.78 189.54"/><path class="cls-2" d="M361.63,83.33c60.6-25.11,131.18,0,196.79,0s136.18-25.09,196.75,0S848,176.09,894.35,222.49s114,78.53,139.14,139.14,0,131.18,0,196.77,25.11,136.2,0,196.78S940.72,848,894.33,894.33s-78.56,114-139.16,139.16-131.16,0-196.75,0-136.19,25.09-196.77,0-92.79-92.76-139.18-139.16-114-78.55-139.16-139.15,0-131.18,0-196.76-25.08-136.19,0-196.79,92.75-92.77,139.13-139.16S301,108.43,361.63,83.33Zm9.78,23.59c-52.18,21.61-90.72,93.46-130.87,133.61s-112,78.71-133.63,130.88,1.94,130.22,1.94,187-23.58,134.84-1.94,187,93.46,90.72,133.61,130.85,78.71,112,130.89,133.61,130.24-1.93,187-1.93,134.82,23.57,187,2,90.72-93.47,130.86-133.61,112-78.71,133.64-130.88-1.94-130.25-1.94-187,23.53-134.85,1.94-187-93.49-90.7-133.64-130.84-78.71-112-130.86-133.63-130.25,1.93-187,1.93-134.88-23.54-187-1.93Z"/><path class="cls-3" d="M558.41,0C629.64,0,690,54.51,755.83,81.77s147,31.41,197.42,81.77S1007.77,295.16,1035,361s81.76,126.21,81.76,197.42S1062.28,690,1035,755.83s-31.42,147-81.79,197.43S821.67,1007.77,755.83,1035s-126.19,81.78-197.42,81.78S426.81,1062.28,361,1035s-147-31.42-197.42-81.77S109,821.64,81.77,755.83,0,629.64,0,558.4,54.52,426.79,81.77,361s31.41-147,81.78-197.44S295.14,109.06,361,81.77,487.16,0,558.41,0Zm0,25.52c-62.14,0-130.13,56-187.66,79.84S225.54,137.68,181.6,181.6s-52.4,131.64-76.24,189.14S25.51,496.29,25.51,558.4s56,130.15,79.85,187.65,32.33,145.21,76.24,189.16,131.63,52.42,189.15,76.24,125.52,79.83,187.66,79.83,130.11-56,187.64-79.83,145.22-32.31,189.13-76.24,52.42-131.63,76.26-189.16,79.85-125.52,79.85-187.65-56-130.13-79.85-187.66-32.32-145.2-76.26-189.14-131.63-52.4-189.13-76.24S620.53,25.52,558.41,25.52Z"/><path class="cls-4" d="M558.41,84.23c60.47,0,111.78,46.31,167.63,69.45s124.86,26.67,167.63,69.44S940,334.86,963.14,390.75s69.45,107.15,69.45,167.65-46.3,111.78-69.45,167.67S936.47,850.92,893.67,893.7,781.92,940,726,963.12s-107.16,69.47-167.63,69.47-111.8-46.31-167.65-69.47S265.9,936.46,223.11,893.7s-46.3-111.76-69.45-167.63S84.22,618.9,84.22,558.4s46.29-111.76,69.44-167.65,26.67-124.86,69.45-167.63,111.75-46.31,167.65-69.44S497.92,84.23,558.41,84.23Zm0,25.52c-51.35,0-110,47.68-157.87,67.49s-123.07,27.63-159.39,63.92-44.07,111.51-63.9,159.38S109.77,507.06,109.77,558.4s47.66,110,67.48,157.87,27.63,123.08,63.9,159.38,111.51,44.08,159.39,63.92,106.52,67.5,157.87,67.5,110-47.68,157.85-67.5S839.33,912,875.65,875.65s44.07-111.51,63.9-159.38,67.5-106.51,67.5-157.87-47.67-110-67.5-157.86-27.61-123.08-63.9-159.38-111.51-44.08-159.39-63.92-106.52-67.49-157.85-67.49Z"/><text class="cls-5" transform="translate(187.15 645.74)">S<tspan class="cls-6" x="185.7" y="0">TB</tspan><tspan class="cls-7" x="564.55" y="0">L</tspan></text></g></g></svg>