<?xml version="1.0" encoding="utf-8"?>
<!-- Generator: Adobe Illustrator 26.0.1, SVG Export Plug-In . SVG Version: 6.00 Build 0)  -->
<svg version="1.1" id="Layer_1" xmlns="http://www.w3.org/2000/svg" xmlns:xlink="http://www.w3.org/1999/xlink" x="0px" y="0px"
	 viewBox="0 0 1116.8 1116.8" style="enable-background:new 0 0 1116.8 1116.8;" xml:space="preserve">
<style type="text/css">
	.st0{fill-rule:evenodd;clip-rule:evenodd;fill:#1F192F;}
	.st1{fill-rule:evenodd;clip-rule:evenodd;fill:url(#SVGID_1_);}
	.st2{fill-rule:evenodd;clip-rule:evenodd;fill:url(#SVGID_00000016760769201023112770000000237380310031499925_);}
	.st3{fill-rule:evenodd;clip-rule:evenodd;fill:url(#SVGID_00000121977473811436626760000008728093821397833607_);}
	.st4{enable-background:new    ;}
	.st5{fill:#FFFFFF;}
</style>
<g id="Layer_2_00000146478984635410749520000014951545257870637992_">
	<g id="Layer_1-2">
		<polygon class="st0" points="335.8,189.5 544.1,100.6 641.1,122.2 863,220.3 905.5,265.6 945,385.6 1007.1,510 1019,577.3 
			978.6,673.8 898.2,867 847,916.7 573.3,1016.2 498.7,1009.9 239.7,894.8 207.9,840.6 168,733.8 118.3,631.4 97.8,552.9 
			109.8,496.4 162.2,407.5 188.5,321.2 223.6,243.7 275.3,207.1 		"/>
		
			<linearGradient id="SVGID_1_" gradientUnits="userSpaceOnUse" x1="72.1278" y1="557.5789" x2="1044.6633" y2="557.5789" gradientTransform="matrix(1 0 0 -1 0 1116)">
			<stop  offset="0" style="stop-color:#995CC4"/>
			<stop  offset="1.000000e-02" style="stop-color:#9465BF"/>
			<stop  offset="5.000000e-02" style="stop-color:#8387AE"/>
			<stop  offset="9.000000e-02" style="stop-color:#76A2A0"/>
			<stop  offset="0.13" style="stop-color:#6DB596"/>
			<stop  offset="0.17" style="stop-color:#67C090"/>
			<stop  offset="0.22" style="stop-color:#65C48E"/>
			<stop  offset="0.53" style="stop-color:#7DBCF4"/>
			<stop  offset="0.77" style="stop-color:#65C48E"/>
			<stop  offset="1" style="stop-color:#995CC4"/>
		</linearGradient>
		<path class="st1" d="M361.6,83.3c60.6-25.1,131.2,0,196.8,0s136.2-25.1,196.8,0s92.8,92.8,139.2,139.2s114,78.5,139.1,139.1
			s0,131.2,0,196.8s25.1,136.2,0,196.8S940.7,848,894.3,894.3s-78.6,114-139.2,139.2c-60.6,25.2-131.2,0-196.8,0
			s-136.2,25.1-196.8,0s-92.8-92.8-139.2-139.2s-114-78.5-139.2-139.2s0-131.2,0-196.8s-25.1-136.2,0-196.8s92.8-92.8,139.1-139.2
			S301,108.4,361.6,83.3z M371.4,106.9c-52.2,21.6-90.7,93.5-130.9,133.6s-112,78.7-133.6,130.9s1.9,130.2,1.9,187
			s-23.6,134.8-1.9,187s93.5,90.7,133.6,130.8s78.7,112,130.9,133.6s130.2-1.9,187-1.9s134.8,23.6,187,2s90.7-93.5,130.9-133.6
			s112-78.7,133.6-130.9s-1.9-130.2-1.9-187s23.5-134.9,1.9-187s-93.5-90.7-133.6-130.8s-78.7-112-130.9-133.6s-130.2,1.9-187,1.9
			S423.5,85.4,371.4,106.9L371.4,106.9z"/>
		
			<linearGradient id="SVGID_00000129891883310775551350000007653152991331814273_" gradientUnits="userSpaceOnUse" x1="0" y1="557.61" x2="1116.76" y2="557.61" gradientTransform="matrix(1 0 0 -1 0 1116)">
			<stop  offset="0" style="stop-color:#995CC4"/>
			<stop  offset="1.000000e-02" style="stop-color:#9465BF"/>
			<stop  offset="5.000000e-02" style="stop-color:#8387AE"/>
			<stop  offset="9.000000e-02" style="stop-color:#76A2A0"/>
			<stop  offset="0.13" style="stop-color:#6DB596"/>
			<stop  offset="0.17" style="stop-color:#67C090"/>
			<stop  offset="0.22" style="stop-color:#65C48E"/>
			<stop  offset="0.53" style="stop-color:#7DBCF4"/>
			<stop  offset="0.77" style="stop-color:#65C48E"/>
			<stop  offset="1" style="stop-color:#995CC4"/>
		</linearGradient>
		<path style="fill-rule:evenodd;clip-rule:evenodd;fill:url(#SVGID_00000129891883310775551350000007653152991331814273_);" d="
			M558.4,0C629.6,0,690,54.5,755.8,81.8s147,31.4,197.4,81.8s54.5,131.6,81.8,197.5s81.8,126.2,81.8,197.4S1062.3,690,1035,755.8
			s-31.4,147-81.8,197.4s-131.5,54.5-197.4,81.7s-126.2,81.8-197.4,81.8S426.8,1062.3,361,1035s-147-31.4-197.4-81.8
			S109,821.6,81.8,755.8S0,629.6,0,558.4S54.5,426.8,81.8,361s31.4-147,81.8-197.4S295.1,109.1,361,81.8S487.2,0,558.4,0z
			 M558.4,25.5c-62.1,0-130.1,56-187.7,79.8s-145.2,32.3-189.1,76.2s-52.4,131.6-76.2,189.1S25.5,496.3,25.5,558.4
			s56,130.2,79.8,187.7s32.3,145.2,76.2,189.2s131.6,52.4,189.1,76.2c57.5,23.8,125.5,79.8,187.7,79.8s130.1-56,187.6-79.8
			s145.2-32.3,189.1-76.2s52.4-131.6,76.3-189.2c23.8-57.5,79.8-125.5,79.8-187.7s-56-130.1-79.8-187.7s-32.3-145.2-76.3-189.1
			s-131.6-52.4-189.1-76.2S620.5,25.5,558.4,25.5z"/>
		
			<linearGradient id="SVGID_00000148651519227897404520000013113609060877916324_" gradientUnits="userSpaceOnUse" x1="84.22" y1="557.59" x2="1032.59" y2="557.59" gradientTransform="matrix(1 0 0 -1 0 1116)">
			<stop  offset="0" style="stop-color:#995CC4"/>
			<stop  offset="1.000000e-02" style="stop-color:#9465BF"/>
			<stop  offset="5.000000e-02" style="stop-color:#8387AE"/>
			<stop  offset="9.000000e-02" style="stop-color:#76A2A0"/>
			<stop  offset="0.13" style="stop-color:#6DB596"/>
			<stop  offset="0.17" style="stop-color:#67C090"/>
			<stop  offset="0.22" style="stop-color:#65C48E"/>
			<stop  offset="0.53" style="stop-color:#7DBCF4"/>
			<stop  offset="0.77" style="stop-color:#65C48E"/>
			<stop  offset="1" style="stop-color:#995CC4"/>
		</linearGradient>
		<path style="fill-rule:evenodd;clip-rule:evenodd;fill:url(#SVGID_00000148651519227897404520000013113609060877916324_);" d="
			M558.4,84.2c60.5,0,111.8,46.3,167.6,69.4s124.9,26.7,167.6,69.4s46.3,111.7,69.5,167.6s69.4,107.1,69.4,167.7
			s-46.3,111.8-69.5,167.7s-26.7,124.8-69.5,167.6S781.9,940,726,963.1s-107.2,69.5-167.6,69.5s-111.8-46.3-167.6-69.5
			s-124.8-26.7-167.6-69.4s-46.3-111.8-69.4-167.6S84.2,618.9,84.2,558.4s46.3-111.8,69.4-167.6s26.7-124.9,69.4-167.6
			s111.7-46.3,167.7-69.4S497.9,84.2,558.4,84.2z M558.4,109.8c-51.4,0-110,47.7-157.9,67.5s-123.1,27.6-159.4,63.9
			s-44.1,111.5-63.9,159.4s-67.5,106.5-67.5,157.9s47.7,110,67.5,157.9s27.6,123.1,63.9,159.4s111.5,44.1,159.4,63.9
			s106.5,67.5,157.9,67.5s110-47.7,157.9-67.5s123.1-27.6,159.4-63.9s44.1-111.5,63.9-159.4s67.5-106.5,67.5-157.9
			s-47.7-110-67.5-157.9s-27.6-123.1-63.9-159.4s-111.5-44.1-159.4-63.9S609.7,109.8,558.4,109.8L558.4,109.8z"/>
		<g class="st4">
			<path class="st5" d="M288.2,648.7c-20.9,0-38.2-2.9-52-8.8c-13.8-5.9-24.1-13.5-31-23c-6.9-9.4-10.5-19.4-10.9-30
				c0-1.8,0.6-3.3,1.8-4.5c1.2-1.2,2.7-1.8,4.5-1.8H248c2.8,0,5,0.4,6.6,1.3c1.6,0.9,3.3,2.1,5.1,3.7c1.8,2.2,3.9,4.2,6.3,6.1
				c2.4,1.9,5.5,3.4,9.2,4.5c3.8,1.1,8.1,1.6,13.1,1.6c9.1,0,16.2-1.2,21.2-3.7c5-2.5,7.5-5.9,7.5-10.3c0-3.4-1.3-6.2-4-8.3
				c-2.7-2.2-7.2-4.2-13.6-6c-6.4-1.8-15-3.7-25.9-5.7c-15.3-2.6-28.5-6.4-39.6-11.5c-11.1-5.1-19.6-11.9-25.5-20.6
				c-5.9-8.6-8.8-19.3-8.8-32c0-12.9,3.6-24.3,10.9-34.3c7.3-9.9,17.4-17.7,30.4-23.2c13-5.6,28.2-8.3,45.5-8.3
				c14.3,0,27,1.9,38,5.7c11,3.8,20.3,8.7,27.9,14.8c7.5,6.1,13.3,12.6,17.3,19.5c4,7,6.1,13.6,6.3,20c0,1.8-0.6,3.3-1.9,4.6
				c-1.3,1.3-2.7,1.9-4.3,1.9h-49.8c-2.4,0-4.4-0.4-6-1.2c-1.6-0.8-3.2-2.1-4.8-3.9c-1-2.8-3.5-5.3-7.5-7.5c-4-2.2-9-3.3-15.2-3.3
				c-6.8,0-11.9,1.1-15.5,3.4c-3.6,2.3-5.4,5.6-5.4,10c0,3,1.1,5.6,3.3,7.8c2.2,2.2,6.1,4.1,11.6,5.8c5.6,1.7,13.3,3.5,23.2,5.5
				c18.9,2.8,34.1,6.8,45.8,11.9c11.6,5.2,20.1,11.9,25.5,20.3c5.4,8.3,8,18.8,8,31.3c0,14.1-4.1,26.2-12.2,36.4
				c-8.2,10.1-19.3,17.9-33.5,23.4C322.7,646,306.5,648.7,288.2,648.7z"/>
		</g>
		<g class="st4">
			<path class="st5" d="M445.3,645.7c-2.2,0-4-0.7-5.5-2.2c-1.5-1.5-2.2-3.3-2.2-5.5V492.5h-51.3c-2.2,0-4-0.7-5.5-2.2
				s-2.2-3.3-2.2-5.5v-39.9c0-2.2,0.7-4,2.2-5.5c1.5-1.5,3.3-2.2,5.5-2.2h167.5c2.2,0,4,0.7,5.5,2.2c1.5,1.5,2.2,3.3,2.2,5.5v39.9
				c0,2.2-0.7,4-2.2,5.5s-3.3,2.2-5.5,2.2h-51.3V638c0,2.2-0.7,4-2.2,5.5s-3.3,2.2-5.5,2.2H445.3z"/>
			<path class="st5" d="M578.5,645.7c-2,0-3.8-0.7-5.4-2.2c-1.6-1.5-2.4-3.3-2.4-5.5V444.8c0-2.2,0.8-4,2.4-5.5
				c1.6-1.5,3.4-2.2,5.4-2.2h95.1c18.1,0,32.9,2.4,44.4,7.2c11.5,4.8,20.1,11.6,25.6,20.6c5.6,8.9,8.3,20,8.3,33.1
				c0,6.8-1.3,12.8-4,18c-2.7,5.3-5.9,9.6-9.7,13.1c-3.8,3.5-7.4,6-10.7,7.6c7.8,3.4,14.5,9.1,20.3,17.1c5.8,8,8.6,17.2,8.6,27.6
				c0,13.9-3.1,25.6-9.4,35.2c-6.3,9.5-15.3,16.8-27.1,21.8c-11.8,5-26.3,7.5-43.4,7.5H578.5z M634.9,517.9h31.9
				c6.4,0,11-1.8,14-5.4s4.5-7.8,4.5-12.5c0-4.8-1.5-8.9-4.5-12.5c-3-3.6-7.7-5.4-14-5.4h-31.9V517.9z M634.9,600.7h34.9
				c6.8,0,11.7-2,14.9-6.1c3.2-4.1,4.8-8.6,4.8-13.6c0-5.2-1.7-9.7-5.1-13.6c-3.4-3.9-8.2-5.8-14.6-5.8h-34.9V600.7z"/>
		</g>
		<g class="st4">
			<path class="st5" d="M777.9,645.7c-2,0-3.8-0.7-5.4-2.2c-1.6-1.5-2.4-3.3-2.4-5.5V444.8c0-2.2,0.8-4,2.4-5.5
				c1.6-1.5,3.4-2.2,5.4-2.2h49.5c2.2,0,4.1,0.7,5.7,2.2c1.6,1.5,2.4,3.3,2.4,5.5v147.8h86.1c2.2,0,4.1,0.7,5.7,2.2
				c1.6,1.5,2.4,3.3,2.4,5.5V638c0,2.2-0.8,4-2.4,5.5c-1.6,1.5-3.5,2.2-5.7,2.2H777.9z"/>
		</g>
	</g>
</g>
</svg>
